M48
; DRILL file KiCad 10.0.3 date 2026-09-10T10:50:46
; FORMAT={-:-/ absolute / metric / decimal}
; #@! TF.CreationDate,2026-09-10T10:50:46-03:00
; #@! TF.GenerationSoftware,Kicad,Pcbnew,10.0.3
; #@! TF.FileFunction,MixedPlating,1,2
FMAT,2
METRIC
; #@! TA.AperFunction,Plated,PTH,ViaDrill
T1C0.300
; #@! TA.AperFunction,Plated,PTH,ComponentDrill
T2C0.750
; #@! TA.AperFunction,Plated,PTH,ComponentDrill
T3C0.800
; #@! TA.AperFunction,Plated,PTH,ComponentDrill
T4C1.000
; #@! TA.AperFunction,Plated,PTH,ComponentDrill
T5C1.100
; #@! TA.AperFunction,Plated,PTH,ComponentDrill
T6C1.300
; #@! TA.AperFunction,Plated,PTH,ComponentDrill
T7C3.200
%
G90
G05
T1
X135.6Y-114.9
T2
X142.36Y-97.3
X143.63Y-98.57
X144.9Y-97.3
X148.1Y-97.3
X149.37Y-98.57
X150.64Y-97.3
T3
X123.0Y-100.15
X123.0Y-102.65
X126.1Y-99.69
X126.1Y-107.31
X129.2Y-99.69
X129.2Y-107.31
X130.9Y-112.39
X130.9Y-120.01
X133.59Y-118.8
X141.21Y-118.8
X141.79Y-102.1
X141.79Y-105.2
X141.8Y-112.4
X141.8Y-114.9
X143.98Y-73.24
X143.98Y-78.32
X143.98Y-83.4
X143.98Y-91.02
X145.56Y-93.9
X149.41Y-102.1
X149.41Y-105.2
X150.64Y-93.9
X151.6Y-73.24
X151.6Y-78.32
X151.6Y-83.4
X151.6Y-91.02
T4
X153.2Y-112.13
X153.2Y-114.67
X153.2Y-117.21
X153.2Y-119.75
T5
X146.7Y-114.72
X146.7Y-124.88
T6
X126.127Y-85.315
X126.127Y-90.395
X126.127Y-95.475
X126.2Y-73.9
X126.2Y-78.98
T7
X137.5Y-74.0
X137.5Y-126.0
M30
