%TF.GenerationSoftware,KiCad,Pcbnew,10.0.3*%
%TF.CreationDate,2026-09-10T16:40:45-03:00*%
%TF.ProjectId,Placa de Corte TX,506c6163-6120-4646-9520-436f72746520,rev?*%
%TF.SameCoordinates,Original*%
%TF.FileFunction,Soldermask,Top*%
%TF.FilePolarity,Negative*%
%FSLAX46Y46*%
G04 Gerber Fmt 4.6, Leading zero omitted, Abs format (unit mm)*
G04 Created by KiCad (PCBNEW 10.0.3) date 2026-09-10 16:40:45*
%MOMM*%
%LPD*%
G01*
G04 APERTURE LIST*
G04 Aperture macros list*
%AMRoundRect*
0 Rectangle with rounded corners*
0 $1 Rounding radius*
0 $2 $3 $4 $5 $6 $7 $8 $9 X,Y pos of 4 corners*
0 Add a 4 corners polygon primitive as box body*
4,1,4,$2,$3,$4,$5,$6,$7,$8,$9,$2,$3,0*
0 Add four circle primitives for the rounded corners*
1,1,$1+$1,$2,$3*
1,1,$1+$1,$4,$5*
1,1,$1+$1,$6,$7*
1,1,$1+$1,$8,$9*
0 Add four rect primitives between the rounded corners*
20,1,$1+$1,$2,$3,$4,$5,0*
20,1,$1+$1,$4,$5,$6,$7,0*
20,1,$1+$1,$6,$7,$8,$9,0*
20,1,$1+$1,$8,$9,$2,$3,0*%
G04 Aperture macros list end*
%ADD10C,1.600000*%
%ADD11C,6.400000*%
%ADD12RoundRect,0.249999X-0.850001X0.850001X-0.850001X-0.850001X0.850001X-0.850001X0.850001X0.850001X0*%
%ADD13C,2.200000*%
%ADD14R,1.100000X1.800000*%
%ADD15RoundRect,0.275000X0.275000X0.625000X-0.275000X0.625000X-0.275000X-0.625000X0.275000X-0.625000X0*%
%ADD16RoundRect,0.250000X-0.550000X-0.550000X0.550000X-0.550000X0.550000X0.550000X-0.550000X0.550000X0*%
%ADD17R,1.700000X1.700000*%
%ADD18C,1.700000*%
%ADD19R,1.600000X1.800000*%
%ADD20R,1.981200X0.558800*%
%ADD21RoundRect,0.250000X-1.050000X1.050000X-1.050000X-1.050000X1.050000X-1.050000X1.050000X1.050000X0*%
%ADD22C,2.600000*%
%TA.AperFunction,Profile*%
%ADD23C,1.000000*%
%TD*%
G04 APERTURE END LIST*
D10*
%TO.C,R7*%
X152510000Y-108300000D03*
X144890000Y-108300000D03*
%TD*%
D11*
%TO.C,H1*%
X137500000Y-126000000D03*
%TD*%
D12*
%TO.C,D1*%
X146700000Y-114720000D03*
D13*
X146700000Y-124880000D03*
%TD*%
D10*
%TO.C,R6*%
X133590000Y-118800000D03*
X141210000Y-118800000D03*
%TD*%
D14*
%TO.C,Q1*%
X144900000Y-96900000D03*
D15*
X143630000Y-98970000D03*
X142360000Y-96900000D03*
%TD*%
D16*
%TO.C,D2*%
X145560000Y-93900000D03*
D10*
X150640000Y-93900000D03*
%TD*%
D11*
%TO.C,H2*%
X137500000Y-74000000D03*
%TD*%
D17*
%TO.C,J1*%
X153200000Y-112130000D03*
D18*
X153200000Y-114670000D03*
X153200000Y-117210000D03*
X153200000Y-119750000D03*
%TD*%
D10*
%TO.C,R5*%
X141790000Y-102100000D03*
X149410000Y-102100000D03*
%TD*%
%TO.C,R3*%
X126100000Y-107310000D03*
X126100000Y-99690000D03*
%TD*%
%TO.C,R2*%
X129200000Y-99690000D03*
X129200000Y-107310000D03*
%TD*%
%TO.C,R1*%
X149410000Y-105200000D03*
X141790000Y-105200000D03*
%TD*%
%TO.C,K1*%
X151600000Y-83400000D03*
X151600000Y-78320000D03*
X151600000Y-73240000D03*
X143980000Y-83400000D03*
X143980000Y-78320000D03*
X143980000Y-73240000D03*
D19*
X151600000Y-91020000D03*
D10*
X143980000Y-91020000D03*
%TD*%
%TO.C,R4*%
X130900000Y-120010000D03*
X130900000Y-112390000D03*
%TD*%
D20*
%TO.C,U1*%
X133872400Y-112390000D03*
X133872400Y-113660000D03*
X133872400Y-114930000D03*
X133872400Y-116200000D03*
X138800000Y-116200000D03*
X138800000Y-114930000D03*
X138800000Y-113660000D03*
X138800000Y-112390000D03*
%TD*%
D21*
%TO.C,J3*%
X126200000Y-73900000D03*
D22*
X126200000Y-78980000D03*
%TD*%
D10*
%TO.C,C2*%
X141800000Y-114900000D03*
X141800000Y-112400000D03*
%TD*%
%TO.C,C1*%
X123000000Y-100150000D03*
X123000000Y-102650000D03*
%TD*%
D14*
%TO.C,Q2*%
X150640000Y-96900000D03*
D15*
X149370000Y-98970000D03*
X148100000Y-96900000D03*
%TD*%
D21*
%TO.C,J2*%
X126127500Y-85315000D03*
D22*
X126127500Y-90395000D03*
X126127500Y-95475000D03*
%TD*%
D23*
X120000000Y-70000000D02*
X155000000Y-70000000D01*
X155000000Y-130000000D01*
X120000000Y-130000000D01*
X120000000Y-70000000D01*
M02*
