%TF.GenerationSoftware,KiCad,Pcbnew,10.0.3*%
%TF.CreationDate,2026-09-10T10:51:16-03:00*%
%TF.ProjectId,Placa de Corte TX,506c6163-6120-4646-9520-436f72746520,rev?*%
%TF.SameCoordinates,Original*%
%TF.FileFunction,Copper,L2,Bot*%
%TF.FilePolarity,Positive*%
%FSLAX46Y46*%
G04 Gerber Fmt 4.6, Leading zero omitted, Abs format (unit mm)*
G04 Created by KiCad (PCBNEW 10.0.3) date 2026-09-10 10:51:16*
%MOMM*%
%LPD*%
G01*
G04 APERTURE LIST*
G04 Aperture macros list*
%AMRoundRect*
0 Rectangle with rounded corners*
0 $1 Rounding radius*
0 $2 $3 $4 $5 $6 $7 $8 $9 X,Y pos of 4 corners*
0 Add a 4 corners polygon primitive as box body*
4,1,4,$2,$3,$4,$5,$6,$7,$8,$9,$2,$3,0*
0 Add four circle primitives for the rounded corners*
1,1,$1+$1,$2,$3*
1,1,$1+$1,$4,$5*
1,1,$1+$1,$6,$7*
1,1,$1+$1,$8,$9*
0 Add four rect primitives between the rounded corners*
20,1,$1+$1,$2,$3,$4,$5,0*
20,1,$1+$1,$4,$5,$6,$7,0*
20,1,$1+$1,$6,$7,$8,$9,0*
20,1,$1+$1,$8,$9,$2,$3,0*%
G04 Aperture macros list end*
%TA.AperFunction,ComponentPad*%
%ADD10C,1.600000*%
%TD*%
%TA.AperFunction,ComponentPad*%
%ADD11RoundRect,0.250000X-1.050000X1.050000X-1.050000X-1.050000X1.050000X-1.050000X1.050000X1.050000X0*%
%TD*%
%TA.AperFunction,ComponentPad*%
%ADD12C,2.600000*%
%TD*%
%TA.AperFunction,ComponentPad*%
%ADD13C,1.700000*%
%TD*%
%TA.AperFunction,ComponentPad*%
%ADD14R,1.700000X1.700000*%
%TD*%
%TA.AperFunction,ComponentPad*%
%ADD15C,6.400000*%
%TD*%
%TA.AperFunction,ComponentPad*%
%ADD16RoundRect,0.249999X-0.850001X0.850001X-0.850001X-0.850001X0.850001X-0.850001X0.850001X0.850001X0*%
%TD*%
%TA.AperFunction,ComponentPad*%
%ADD17C,2.200000*%
%TD*%
%TA.AperFunction,ComponentPad*%
%ADD18R,1.100000X1.800000*%
%TD*%
%TA.AperFunction,ComponentPad*%
%ADD19RoundRect,0.275000X0.275000X0.625000X-0.275000X0.625000X-0.275000X-0.625000X0.275000X-0.625000X0*%
%TD*%
%TA.AperFunction,ComponentPad*%
%ADD20RoundRect,0.250000X-0.550000X-0.550000X0.550000X-0.550000X0.550000X0.550000X-0.550000X0.550000X0*%
%TD*%
%TA.AperFunction,ComponentPad*%
%ADD21R,1.600000X1.800000*%
%TD*%
%TA.AperFunction,ViaPad*%
%ADD22C,0.600000*%
%TD*%
%TA.AperFunction,Conductor*%
%ADD23C,0.750000*%
%TD*%
%TA.AperFunction,Conductor*%
%ADD24C,2.000000*%
%TD*%
%TA.AperFunction,Conductor*%
%ADD25C,3.000000*%
%TD*%
%TA.AperFunction,Conductor*%
%ADD26C,1.500000*%
%TD*%
%TA.AperFunction,Conductor*%
%ADD27C,1.000000*%
%TD*%
%TA.AperFunction,Conductor*%
%ADD28C,2.500000*%
%TD*%
%TA.AperFunction,Profile*%
%ADD29C,1.000000*%
%TD*%
G04 APERTURE END LIST*
D10*
%TO.P,R6,1*%
%TO.N,Net-(U1-IN2-)*%
X133590000Y-118800000D03*
%TO.P,R6,2*%
%TO.N,GND1*%
X141210000Y-118800000D03*
%TD*%
%TO.P,R1,2*%
%TO.N,Net-(Q1-B)*%
X141790000Y-105200000D03*
%TO.P,R1,1*%
%TO.N,apagadoTX*%
X149410000Y-105200000D03*
%TD*%
D11*
%TO.P,J2,1,1_1*%
%TO.N,+12V*%
X126127500Y-85315000D03*
D12*
%TO.P,J2,2,2_2*%
%TO.N,MED_PP1*%
X126127500Y-90395000D03*
%TO.P,J2,3,3_3*%
%TO.N,GND*%
X126127500Y-95475000D03*
%TD*%
D13*
%TO.P,J1,4,Pin_4_4*%
%TO.N,GND1*%
X153200000Y-119750000D03*
%TO.P,J1,3,Pin_3_3*%
%TO.N,apagadoTX*%
X153200000Y-117210000D03*
%TO.P,J1,2,Pin_2_2*%
%TO.N,ADC0*%
X153200000Y-114670000D03*
D14*
%TO.P,J1,1,Pin_1_1*%
%TO.N,+5V*%
X153200000Y-112130000D03*
%TD*%
D15*
%TO.P,H1,1,1_1*%
%TO.N,unconnected-(H1-Pad1)*%
X137500000Y-126000000D03*
%TD*%
D16*
%TO.P,D1,1,K_1*%
%TO.N,ADC0*%
X146700000Y-114720000D03*
D17*
%TO.P,D1,2,A_2*%
%TO.N,GND1*%
X146700000Y-124880000D03*
%TD*%
D18*
%TO.P,Q1,1,C_1*%
%TO.N,Net-(Q1-C)*%
X144900000Y-96900000D03*
D19*
%TO.P,Q1,2,B_2*%
%TO.N,Net-(Q1-B)*%
X143630000Y-98970000D03*
%TO.P,Q1,3,E_3*%
%TO.N,GND*%
X142360000Y-96900000D03*
%TD*%
D20*
%TO.P,D2,1,A_1*%
%TO.N,GND*%
X145560000Y-93900000D03*
D10*
%TO.P,D2,2,C_2*%
%TO.N,Net-(D2-C)*%
X150640000Y-93900000D03*
%TD*%
D15*
%TO.P,H2,1,1_1*%
%TO.N,unconnected-(H2-Pad1)*%
X137500000Y-74000000D03*
%TD*%
D10*
%TO.P,R5,1*%
%TO.N,+12V*%
X141790000Y-102100000D03*
%TO.P,R5,2*%
%TO.N,Net-(Q1-C)*%
X149410000Y-102100000D03*
%TD*%
%TO.P,R3,1*%
%TO.N,Net-(U1-IN1+)*%
X126100000Y-107310000D03*
%TO.P,R3,2*%
%TO.N,GND1*%
X126100000Y-99690000D03*
%TD*%
%TO.P,R2,1*%
%TO.N,MED_PP1*%
X129200000Y-99690000D03*
%TO.P,R2,2*%
%TO.N,Net-(U1-IN1+)*%
X129200000Y-107310000D03*
%TD*%
%TO.P,K1,11*%
%TO.N,+12V*%
X151600000Y-83400000D03*
%TO.P,K1,12*%
%TO.N,NC*%
X151600000Y-78320000D03*
%TO.P,K1,14*%
%TO.N,unconnected-(K1-Pad14)*%
X151600000Y-73240000D03*
%TO.P,K1,21*%
%TO.N,+12V*%
X143980000Y-83400000D03*
%TO.P,K1,22*%
%TO.N,NC*%
X143980000Y-78320000D03*
%TO.P,K1,24*%
%TO.N,unconnected-(K1-Pad24)*%
X143980000Y-73240000D03*
D21*
%TO.P,K1,A1*%
%TO.N,Net-(D2-C)*%
X151600000Y-91020000D03*
D10*
%TO.P,K1,A2*%
%TO.N,GND*%
X143980000Y-91020000D03*
%TD*%
%TO.P,R4,1*%
%TO.N,ADC0*%
X130900000Y-120010000D03*
%TO.P,R4,2*%
%TO.N,Net-(U1-IN1-)*%
X130900000Y-112390000D03*
%TD*%
D11*
%TO.P,J3,1,1_1*%
%TO.N,NC*%
X126200000Y-73900000D03*
D12*
%TO.P,J3,2,2_2*%
%TO.N,GND*%
X126200000Y-78980000D03*
%TD*%
D10*
%TO.P,C2,1*%
%TO.N,GND1*%
X141800000Y-114900000D03*
%TO.P,C2,2*%
%TO.N,+5V*%
X141800000Y-112400000D03*
%TD*%
%TO.P,C1,1*%
%TO.N,GND1*%
X123000000Y-100150000D03*
%TO.P,C1,2*%
%TO.N,Net-(U1-IN1+)*%
X123000000Y-102650000D03*
%TD*%
D18*
%TO.P,Q2,1,C_1*%
%TO.N,Net-(D2-C)*%
X150640000Y-96900000D03*
D19*
%TO.P,Q2,2,B_2*%
%TO.N,Net-(Q1-C)*%
X149370000Y-98970000D03*
%TO.P,Q2,3,E_3*%
%TO.N,+12V*%
X148100000Y-96900000D03*
%TD*%
D22*
%TO.N,Net-(U1-IN2-)*%
X135600000Y-114900000D03*
%TD*%
%TO.N,Net-(U1-IN1+)*%
D23*
X126100000Y-104800000D02*
X126100000Y-107310000D01*
X123950000Y-102650000D02*
X126100000Y-104800000D01*
X123000000Y-102650000D02*
X123950000Y-102650000D01*
%TO.N,GND1*%
D24*
X125640000Y-100150000D02*
X126100000Y-99690000D01*
X123000000Y-100150000D02*
X125640000Y-100150000D01*
X126100000Y-101400000D02*
X126100000Y-99690000D01*
X138500000Y-107600000D02*
X134300000Y-103400000D01*
X128100000Y-103400000D02*
X126100000Y-101400000D01*
X138500000Y-118400000D02*
X138500000Y-107600000D01*
X134300000Y-103400000D02*
X128100000Y-103400000D01*
X138900000Y-118800000D02*
X138500000Y-118400000D01*
X141210000Y-118800000D02*
X138900000Y-118800000D01*
%TO.N,Net-(U1-IN2-)*%
D23*
X135000000Y-118800000D02*
X133590000Y-118800000D01*
X135600000Y-118200000D02*
X135000000Y-118800000D01*
X135600000Y-114900000D02*
X135600000Y-118200000D01*
%TO.N,+12V*%
D25*
X126127500Y-85315000D02*
X142065000Y-85315000D01*
X142065000Y-85315000D02*
X143980000Y-83400000D01*
X151600000Y-83400000D02*
X143980000Y-83400000D01*
%TO.N,NC*%
X142600000Y-79700000D02*
X143980000Y-78320000D01*
X133800000Y-79700000D02*
X142600000Y-79700000D01*
X128000000Y-73900000D02*
X133800000Y-79700000D01*
X126200000Y-73900000D02*
X128000000Y-73900000D01*
X151600000Y-78320000D02*
X143980000Y-78320000D01*
%TO.N,GND1*%
D24*
X141210000Y-115490000D02*
X141800000Y-114900000D01*
X141210000Y-118800000D02*
X141210000Y-115490000D01*
X146700000Y-120600000D02*
X146700000Y-124880000D01*
X144900000Y-118800000D02*
X146700000Y-120600000D01*
X141210000Y-118800000D02*
X144900000Y-118800000D01*
X151520000Y-124880000D02*
X146700000Y-124880000D01*
X153200000Y-123200000D02*
X151520000Y-124880000D01*
X153200000Y-119750000D02*
X153200000Y-123200000D01*
%TO.N,MED_PP1*%
D26*
X129200000Y-93467500D02*
X126127500Y-90395000D01*
X129200000Y-99690000D02*
X129200000Y-93467500D01*
%TO.N,Net-(U1-IN1+)*%
D23*
X129200000Y-107310000D02*
X126100000Y-107310000D01*
%TO.N,GND1*%
X141200000Y-118790000D02*
X141210000Y-118800000D01*
%TO.N,apagadoTX*%
D27*
X149410000Y-115610000D02*
X149410000Y-105200000D01*
X151010000Y-117210000D02*
X149410000Y-115610000D01*
X153200000Y-117210000D02*
X151010000Y-117210000D01*
%TO.N,Net-(Q1-B)*%
X143630000Y-103360000D02*
X141790000Y-105200000D01*
X143630000Y-98570000D02*
X143630000Y-103360000D01*
%TO.N,+12V*%
X140600000Y-100910000D02*
X140600000Y-85200000D01*
X141790000Y-102100000D02*
X140600000Y-100910000D01*
%TO.N,Net-(Q1-C)*%
X149370000Y-102060000D02*
X149410000Y-102100000D01*
X149370000Y-98570000D02*
X149370000Y-102060000D01*
X145070000Y-98570000D02*
X149370000Y-98570000D01*
X144900000Y-98400000D02*
X145070000Y-98570000D01*
X144900000Y-97300000D02*
X144900000Y-98400000D01*
%TO.N,GND*%
X142360000Y-95740000D02*
X144200000Y-93900000D01*
X144200000Y-93900000D02*
X145560000Y-93900000D01*
X142360000Y-97300000D02*
X142360000Y-95740000D01*
D24*
X145560000Y-92600000D02*
X143980000Y-91020000D01*
X145560000Y-93900000D02*
X145560000Y-92600000D01*
%TO.N,Net-(D2-C)*%
D27*
X150640000Y-93900000D02*
X150640000Y-97300000D01*
X151600000Y-92940000D02*
X150640000Y-93900000D01*
X151600000Y-91020000D02*
X151600000Y-92940000D01*
%TO.N,+12V*%
X148100000Y-83800000D02*
X148500000Y-83400000D01*
X148100000Y-97300000D02*
X148100000Y-83800000D01*
%TO.N,GND*%
D24*
X126100000Y-95502500D02*
X126127500Y-95475000D01*
D25*
X122975000Y-95475000D02*
X126127500Y-95475000D01*
X122100000Y-94600000D02*
X122975000Y-95475000D01*
X122000000Y-94600000D02*
X122100000Y-94600000D01*
X122000000Y-79900000D02*
X122000000Y-94600000D01*
X122920000Y-78980000D02*
X122000000Y-79900000D01*
X126200000Y-78980000D02*
X122920000Y-78980000D01*
D28*
X126052500Y-95400000D02*
X126127500Y-95475000D01*
%TO.N,+12V*%
D24*
X126242500Y-85200000D02*
X126127500Y-85315000D01*
%TD*%
D29*
X120000000Y-70000000D02*
X155000000Y-70000000D01*
X155000000Y-130000000D01*
X120000000Y-130000000D01*
X120000000Y-70000000D01*
M02*
