%TF.GenerationSoftware,KiCad,Pcbnew,10.0.3*%
%TF.CreationDate,2026-09-10T16:40:45-03:00*%
%TF.ProjectId,Placa de Corte TX,506c6163-6120-4646-9520-436f72746520,rev?*%
%TF.SameCoordinates,Original*%
%TF.FileFunction,Legend,Top*%
%TF.FilePolarity,Positive*%
%FSLAX46Y46*%
G04 Gerber Fmt 4.6, Leading zero omitted, Abs format (unit mm)*
G04 Created by KiCad (PCBNEW 10.0.3) date 2026-09-10 16:40:45*
%MOMM*%
%LPD*%
G01*
G04 APERTURE LIST*
%ADD10C,0.300000*%
%ADD11C,0.150000*%
%ADD12C,0.120000*%
%ADD13C,0.152400*%
%TA.AperFunction,Profile*%
%ADD14C,1.000000*%
%TD*%
G04 APERTURE END LIST*
D10*
X132940225Y-78772257D02*
X132797368Y-78700828D01*
X132797368Y-78700828D02*
X132583082Y-78700828D01*
X132583082Y-78700828D02*
X132368796Y-78772257D01*
X132368796Y-78772257D02*
X132225939Y-78915114D01*
X132225939Y-78915114D02*
X132154510Y-79057971D01*
X132154510Y-79057971D02*
X132083082Y-79343685D01*
X132083082Y-79343685D02*
X132083082Y-79557971D01*
X132083082Y-79557971D02*
X132154510Y-79843685D01*
X132154510Y-79843685D02*
X132225939Y-79986542D01*
X132225939Y-79986542D02*
X132368796Y-80129400D01*
X132368796Y-80129400D02*
X132583082Y-80200828D01*
X132583082Y-80200828D02*
X132725939Y-80200828D01*
X132725939Y-80200828D02*
X132940225Y-80129400D01*
X132940225Y-80129400D02*
X133011653Y-80057971D01*
X133011653Y-80057971D02*
X133011653Y-79557971D01*
X133011653Y-79557971D02*
X132725939Y-79557971D01*
X133654510Y-80200828D02*
X133654510Y-78700828D01*
X133654510Y-78700828D02*
X134511653Y-80200828D01*
X134511653Y-80200828D02*
X134511653Y-78700828D01*
X135225939Y-80200828D02*
X135225939Y-78700828D01*
X135225939Y-78700828D02*
X135583082Y-78700828D01*
X135583082Y-78700828D02*
X135797368Y-78772257D01*
X135797368Y-78772257D02*
X135940225Y-78915114D01*
X135940225Y-78915114D02*
X136011654Y-79057971D01*
X136011654Y-79057971D02*
X136083082Y-79343685D01*
X136083082Y-79343685D02*
X136083082Y-79557971D01*
X136083082Y-79557971D02*
X136011654Y-79843685D01*
X136011654Y-79843685D02*
X135940225Y-79986542D01*
X135940225Y-79986542D02*
X135797368Y-80129400D01*
X135797368Y-80129400D02*
X135583082Y-80200828D01*
X135583082Y-80200828D02*
X135225939Y-80200828D01*
X132940225Y-85900828D02*
X132083082Y-85900828D01*
X132511653Y-85900828D02*
X132511653Y-84400828D01*
X132511653Y-84400828D02*
X132368796Y-84615114D01*
X132368796Y-84615114D02*
X132225939Y-84757971D01*
X132225939Y-84757971D02*
X132083082Y-84829400D01*
X133511653Y-84543685D02*
X133583081Y-84472257D01*
X133583081Y-84472257D02*
X133725939Y-84400828D01*
X133725939Y-84400828D02*
X134083081Y-84400828D01*
X134083081Y-84400828D02*
X134225939Y-84472257D01*
X134225939Y-84472257D02*
X134297367Y-84543685D01*
X134297367Y-84543685D02*
X134368796Y-84686542D01*
X134368796Y-84686542D02*
X134368796Y-84829400D01*
X134368796Y-84829400D02*
X134297367Y-85043685D01*
X134297367Y-85043685D02*
X133440224Y-85900828D01*
X133440224Y-85900828D02*
X134368796Y-85900828D01*
X134797367Y-84400828D02*
X135297367Y-85900828D01*
X135297367Y-85900828D02*
X135797367Y-84400828D01*
X132940225Y-94672257D02*
X132797368Y-94600828D01*
X132797368Y-94600828D02*
X132583082Y-94600828D01*
X132583082Y-94600828D02*
X132368796Y-94672257D01*
X132368796Y-94672257D02*
X132225939Y-94815114D01*
X132225939Y-94815114D02*
X132154510Y-94957971D01*
X132154510Y-94957971D02*
X132083082Y-95243685D01*
X132083082Y-95243685D02*
X132083082Y-95457971D01*
X132083082Y-95457971D02*
X132154510Y-95743685D01*
X132154510Y-95743685D02*
X132225939Y-95886542D01*
X132225939Y-95886542D02*
X132368796Y-96029400D01*
X132368796Y-96029400D02*
X132583082Y-96100828D01*
X132583082Y-96100828D02*
X132725939Y-96100828D01*
X132725939Y-96100828D02*
X132940225Y-96029400D01*
X132940225Y-96029400D02*
X133011653Y-95957971D01*
X133011653Y-95957971D02*
X133011653Y-95457971D01*
X133011653Y-95457971D02*
X132725939Y-95457971D01*
X133654510Y-96100828D02*
X133654510Y-94600828D01*
X133654510Y-94600828D02*
X134511653Y-96100828D01*
X134511653Y-96100828D02*
X134511653Y-94600828D01*
X135225939Y-96100828D02*
X135225939Y-94600828D01*
X135225939Y-94600828D02*
X135583082Y-94600828D01*
X135583082Y-94600828D02*
X135797368Y-94672257D01*
X135797368Y-94672257D02*
X135940225Y-94815114D01*
X135940225Y-94815114D02*
X136011654Y-94957971D01*
X136011654Y-94957971D02*
X136083082Y-95243685D01*
X136083082Y-95243685D02*
X136083082Y-95457971D01*
X136083082Y-95457971D02*
X136011654Y-95743685D01*
X136011654Y-95743685D02*
X135940225Y-95886542D01*
X135940225Y-95886542D02*
X135797368Y-96029400D01*
X135797368Y-96029400D02*
X135583082Y-96100828D01*
X135583082Y-96100828D02*
X135225939Y-96100828D01*
X132254510Y-90900828D02*
X132254510Y-89400828D01*
X132254510Y-89400828D02*
X132825939Y-89400828D01*
X132825939Y-89400828D02*
X132968796Y-89472257D01*
X132968796Y-89472257D02*
X133040225Y-89543685D01*
X133040225Y-89543685D02*
X133111653Y-89686542D01*
X133111653Y-89686542D02*
X133111653Y-89900828D01*
X133111653Y-89900828D02*
X133040225Y-90043685D01*
X133040225Y-90043685D02*
X132968796Y-90115114D01*
X132968796Y-90115114D02*
X132825939Y-90186542D01*
X132825939Y-90186542D02*
X132254510Y-90186542D01*
X133754510Y-90900828D02*
X133754510Y-89400828D01*
X133754510Y-89400828D02*
X134325939Y-89400828D01*
X134325939Y-89400828D02*
X134468796Y-89472257D01*
X134468796Y-89472257D02*
X134540225Y-89543685D01*
X134540225Y-89543685D02*
X134611653Y-89686542D01*
X134611653Y-89686542D02*
X134611653Y-89900828D01*
X134611653Y-89900828D02*
X134540225Y-90043685D01*
X134540225Y-90043685D02*
X134468796Y-90115114D01*
X134468796Y-90115114D02*
X134325939Y-90186542D01*
X134325939Y-90186542D02*
X133754510Y-90186542D01*
X136040225Y-90900828D02*
X135183082Y-90900828D01*
X135611653Y-90900828D02*
X135611653Y-89400828D01*
X135611653Y-89400828D02*
X135468796Y-89615114D01*
X135468796Y-89615114D02*
X135325939Y-89757971D01*
X135325939Y-89757971D02*
X135183082Y-89829400D01*
X124856944Y-113511653D02*
X124785516Y-113440225D01*
X124785516Y-113440225D02*
X124714087Y-113225939D01*
X124714087Y-113225939D02*
X124714087Y-113083082D01*
X124714087Y-113083082D02*
X124785516Y-112868796D01*
X124785516Y-112868796D02*
X124928373Y-112725939D01*
X124928373Y-112725939D02*
X125071230Y-112654510D01*
X125071230Y-112654510D02*
X125356944Y-112583082D01*
X125356944Y-112583082D02*
X125571230Y-112583082D01*
X125571230Y-112583082D02*
X125856944Y-112654510D01*
X125856944Y-112654510D02*
X125999801Y-112725939D01*
X125999801Y-112725939D02*
X126142658Y-112868796D01*
X126142658Y-112868796D02*
X126214087Y-113083082D01*
X126214087Y-113083082D02*
X126214087Y-113225939D01*
X126214087Y-113225939D02*
X126142658Y-113440225D01*
X126142658Y-113440225D02*
X126071230Y-113511653D01*
X124714087Y-114368796D02*
X124785516Y-114225939D01*
X124785516Y-114225939D02*
X124856944Y-114154510D01*
X124856944Y-114154510D02*
X124999801Y-114083082D01*
X124999801Y-114083082D02*
X125428373Y-114083082D01*
X125428373Y-114083082D02*
X125571230Y-114154510D01*
X125571230Y-114154510D02*
X125642658Y-114225939D01*
X125642658Y-114225939D02*
X125714087Y-114368796D01*
X125714087Y-114368796D02*
X125714087Y-114583082D01*
X125714087Y-114583082D02*
X125642658Y-114725939D01*
X125642658Y-114725939D02*
X125571230Y-114797368D01*
X125571230Y-114797368D02*
X125428373Y-114868796D01*
X125428373Y-114868796D02*
X124999801Y-114868796D01*
X124999801Y-114868796D02*
X124856944Y-114797368D01*
X124856944Y-114797368D02*
X124785516Y-114725939D01*
X124785516Y-114725939D02*
X124714087Y-114583082D01*
X124714087Y-114583082D02*
X124714087Y-114368796D01*
X124714087Y-115511653D02*
X125714087Y-115511653D01*
X125428373Y-115511653D02*
X125571230Y-115583082D01*
X125571230Y-115583082D02*
X125642658Y-115654511D01*
X125642658Y-115654511D02*
X125714087Y-115797368D01*
X125714087Y-115797368D02*
X125714087Y-115940225D01*
X125714087Y-116225939D02*
X125714087Y-116797367D01*
X126214087Y-116440224D02*
X124928373Y-116440224D01*
X124928373Y-116440224D02*
X124785516Y-116511653D01*
X124785516Y-116511653D02*
X124714087Y-116654510D01*
X124714087Y-116654510D02*
X124714087Y-116797367D01*
X124785516Y-117868796D02*
X124714087Y-117725939D01*
X124714087Y-117725939D02*
X124714087Y-117440225D01*
X124714087Y-117440225D02*
X124785516Y-117297367D01*
X124785516Y-117297367D02*
X124928373Y-117225939D01*
X124928373Y-117225939D02*
X125499801Y-117225939D01*
X125499801Y-117225939D02*
X125642658Y-117297367D01*
X125642658Y-117297367D02*
X125714087Y-117440225D01*
X125714087Y-117440225D02*
X125714087Y-117725939D01*
X125714087Y-117725939D02*
X125642658Y-117868796D01*
X125642658Y-117868796D02*
X125499801Y-117940225D01*
X125499801Y-117940225D02*
X125356944Y-117940225D01*
X125356944Y-117940225D02*
X125214087Y-117225939D01*
X126214087Y-119511653D02*
X126214087Y-120368796D01*
X124714087Y-119940224D02*
X126214087Y-119940224D01*
X126214087Y-120725938D02*
X124714087Y-121725938D01*
X126214087Y-121725938D02*
X124714087Y-120725938D01*
X126214087Y-123225938D02*
X124714087Y-123725938D01*
X124714087Y-123725938D02*
X126214087Y-124225938D01*
X126071230Y-124654509D02*
X126142658Y-124725937D01*
X126142658Y-124725937D02*
X126214087Y-124868795D01*
X126214087Y-124868795D02*
X126214087Y-125225937D01*
X126214087Y-125225937D02*
X126142658Y-125368795D01*
X126142658Y-125368795D02*
X126071230Y-125440223D01*
X126071230Y-125440223D02*
X125928373Y-125511652D01*
X125928373Y-125511652D02*
X125785516Y-125511652D01*
X125785516Y-125511652D02*
X125571230Y-125440223D01*
X125571230Y-125440223D02*
X124714087Y-124583080D01*
X124714087Y-124583080D02*
X124714087Y-125511652D01*
X123084885Y-112654510D02*
X123084885Y-113154510D01*
X122299171Y-113368796D02*
X122299171Y-112654510D01*
X122299171Y-112654510D02*
X123799171Y-112654510D01*
X123799171Y-112654510D02*
X123799171Y-113368796D01*
X123013457Y-114297368D02*
X122299171Y-114297368D01*
X123799171Y-113797368D02*
X123013457Y-114297368D01*
X123013457Y-114297368D02*
X123799171Y-114797368D01*
X122370600Y-115225939D02*
X122299171Y-115440225D01*
X122299171Y-115440225D02*
X122299171Y-115797367D01*
X122299171Y-115797367D02*
X122370600Y-115940225D01*
X122370600Y-115940225D02*
X122442028Y-116011653D01*
X122442028Y-116011653D02*
X122584885Y-116083082D01*
X122584885Y-116083082D02*
X122727742Y-116083082D01*
X122727742Y-116083082D02*
X122870600Y-116011653D01*
X122870600Y-116011653D02*
X122942028Y-115940225D01*
X122942028Y-115940225D02*
X123013457Y-115797367D01*
X123013457Y-115797367D02*
X123084885Y-115511653D01*
X123084885Y-115511653D02*
X123156314Y-115368796D01*
X123156314Y-115368796D02*
X123227742Y-115297367D01*
X123227742Y-115297367D02*
X123370600Y-115225939D01*
X123370600Y-115225939D02*
X123513457Y-115225939D01*
X123513457Y-115225939D02*
X123656314Y-115297367D01*
X123656314Y-115297367D02*
X123727742Y-115368796D01*
X123727742Y-115368796D02*
X123799171Y-115511653D01*
X123799171Y-115511653D02*
X123799171Y-115868796D01*
X123799171Y-115868796D02*
X123727742Y-116083082D01*
X123084885Y-116725938D02*
X123084885Y-117225938D01*
X122299171Y-117440224D02*
X122299171Y-116725938D01*
X122299171Y-116725938D02*
X123799171Y-116725938D01*
X123799171Y-116725938D02*
X123799171Y-117440224D01*
X122370600Y-119154510D02*
X122299171Y-119368796D01*
X122299171Y-119368796D02*
X122299171Y-119725938D01*
X122299171Y-119725938D02*
X122370600Y-119868796D01*
X122370600Y-119868796D02*
X122442028Y-119940224D01*
X122442028Y-119940224D02*
X122584885Y-120011653D01*
X122584885Y-120011653D02*
X122727742Y-120011653D01*
X122727742Y-120011653D02*
X122870600Y-119940224D01*
X122870600Y-119940224D02*
X122942028Y-119868796D01*
X122942028Y-119868796D02*
X123013457Y-119725938D01*
X123013457Y-119725938D02*
X123084885Y-119440224D01*
X123084885Y-119440224D02*
X123156314Y-119297367D01*
X123156314Y-119297367D02*
X123227742Y-119225938D01*
X123227742Y-119225938D02*
X123370600Y-119154510D01*
X123370600Y-119154510D02*
X123513457Y-119154510D01*
X123513457Y-119154510D02*
X123656314Y-119225938D01*
X123656314Y-119225938D02*
X123727742Y-119297367D01*
X123727742Y-119297367D02*
X123799171Y-119440224D01*
X123799171Y-119440224D02*
X123799171Y-119797367D01*
X123799171Y-119797367D02*
X123727742Y-120011653D01*
X122442028Y-120654509D02*
X122370600Y-120725938D01*
X122370600Y-120725938D02*
X122299171Y-120654509D01*
X122299171Y-120654509D02*
X122370600Y-120583081D01*
X122370600Y-120583081D02*
X122442028Y-120654509D01*
X122442028Y-120654509D02*
X122299171Y-120654509D01*
X122727742Y-121297367D02*
X122727742Y-122011653D01*
X122299171Y-121154510D02*
X123799171Y-121654510D01*
X123799171Y-121654510D02*
X122299171Y-122154510D01*
X122442028Y-122654509D02*
X122370600Y-122725938D01*
X122370600Y-122725938D02*
X122299171Y-122654509D01*
X122299171Y-122654509D02*
X122370600Y-122583081D01*
X122370600Y-122583081D02*
X122442028Y-122654509D01*
X122442028Y-122654509D02*
X122299171Y-122654509D01*
X122442028Y-124225938D02*
X122370600Y-124154510D01*
X122370600Y-124154510D02*
X122299171Y-123940224D01*
X122299171Y-123940224D02*
X122299171Y-123797367D01*
X122299171Y-123797367D02*
X122370600Y-123583081D01*
X122370600Y-123583081D02*
X122513457Y-123440224D01*
X122513457Y-123440224D02*
X122656314Y-123368795D01*
X122656314Y-123368795D02*
X122942028Y-123297367D01*
X122942028Y-123297367D02*
X123156314Y-123297367D01*
X123156314Y-123297367D02*
X123442028Y-123368795D01*
X123442028Y-123368795D02*
X123584885Y-123440224D01*
X123584885Y-123440224D02*
X123727742Y-123583081D01*
X123727742Y-123583081D02*
X123799171Y-123797367D01*
X123799171Y-123797367D02*
X123799171Y-123940224D01*
X123799171Y-123940224D02*
X123727742Y-124154510D01*
X123727742Y-124154510D02*
X123656314Y-124225938D01*
X122442028Y-124868795D02*
X122370600Y-124940224D01*
X122370600Y-124940224D02*
X122299171Y-124868795D01*
X122299171Y-124868795D02*
X122370600Y-124797367D01*
X122370600Y-124797367D02*
X122442028Y-124868795D01*
X122442028Y-124868795D02*
X122299171Y-124868795D01*
X122299171Y-125583081D02*
X123799171Y-125583081D01*
X122442028Y-126297367D02*
X122370600Y-126368796D01*
X122370600Y-126368796D02*
X122299171Y-126297367D01*
X122299171Y-126297367D02*
X122370600Y-126225939D01*
X122370600Y-126225939D02*
X122442028Y-126297367D01*
X122442028Y-126297367D02*
X122299171Y-126297367D01*
X133599171Y-71340225D02*
X133599171Y-72197368D01*
X132099171Y-71768796D02*
X133599171Y-71768796D01*
X133599171Y-72554510D02*
X132099171Y-73554510D01*
X133599171Y-73554510D02*
X132099171Y-72554510D01*
X132099171Y-74340224D02*
X132170600Y-74197367D01*
X132170600Y-74197367D02*
X132242028Y-74125938D01*
X132242028Y-74125938D02*
X132384885Y-74054510D01*
X132384885Y-74054510D02*
X132813457Y-74054510D01*
X132813457Y-74054510D02*
X132956314Y-74125938D01*
X132956314Y-74125938D02*
X133027742Y-74197367D01*
X133027742Y-74197367D02*
X133099171Y-74340224D01*
X133099171Y-74340224D02*
X133099171Y-74554510D01*
X133099171Y-74554510D02*
X133027742Y-74697367D01*
X133027742Y-74697367D02*
X132956314Y-74768796D01*
X132956314Y-74768796D02*
X132813457Y-74840224D01*
X132813457Y-74840224D02*
X132384885Y-74840224D01*
X132384885Y-74840224D02*
X132242028Y-74768796D01*
X132242028Y-74768796D02*
X132170600Y-74697367D01*
X132170600Y-74697367D02*
X132099171Y-74554510D01*
X132099171Y-74554510D02*
X132099171Y-74340224D01*
X133099171Y-76125939D02*
X132099171Y-76125939D01*
X133099171Y-75483081D02*
X132313457Y-75483081D01*
X132313457Y-75483081D02*
X132170600Y-75554510D01*
X132170600Y-75554510D02*
X132099171Y-75697367D01*
X132099171Y-75697367D02*
X132099171Y-75911653D01*
X132099171Y-75911653D02*
X132170600Y-76054510D01*
X132170600Y-76054510D02*
X132242028Y-76125939D01*
X133099171Y-76625939D02*
X133099171Y-77197367D01*
X133599171Y-76840224D02*
X132313457Y-76840224D01*
X132313457Y-76840224D02*
X132170600Y-76911653D01*
X132170600Y-76911653D02*
X132099171Y-77054510D01*
X132099171Y-77054510D02*
X132099171Y-77197367D01*
D11*
X142633333Y-108854819D02*
X142300000Y-108378628D01*
X142061905Y-108854819D02*
X142061905Y-107854819D01*
X142061905Y-107854819D02*
X142442857Y-107854819D01*
X142442857Y-107854819D02*
X142538095Y-107902438D01*
X142538095Y-107902438D02*
X142585714Y-107950057D01*
X142585714Y-107950057D02*
X142633333Y-108045295D01*
X142633333Y-108045295D02*
X142633333Y-108188152D01*
X142633333Y-108188152D02*
X142585714Y-108283390D01*
X142585714Y-108283390D02*
X142538095Y-108331009D01*
X142538095Y-108331009D02*
X142442857Y-108378628D01*
X142442857Y-108378628D02*
X142061905Y-108378628D01*
X142966667Y-107854819D02*
X143633333Y-107854819D01*
X143633333Y-107854819D02*
X143204762Y-108854819D01*
X144854819Y-125038094D02*
X143854819Y-125038094D01*
X143854819Y-125038094D02*
X143854819Y-124799999D01*
X143854819Y-124799999D02*
X143902438Y-124657142D01*
X143902438Y-124657142D02*
X143997676Y-124561904D01*
X143997676Y-124561904D02*
X144092914Y-124514285D01*
X144092914Y-124514285D02*
X144283390Y-124466666D01*
X144283390Y-124466666D02*
X144426247Y-124466666D01*
X144426247Y-124466666D02*
X144616723Y-124514285D01*
X144616723Y-124514285D02*
X144711961Y-124561904D01*
X144711961Y-124561904D02*
X144807200Y-124657142D01*
X144807200Y-124657142D02*
X144854819Y-124799999D01*
X144854819Y-124799999D02*
X144854819Y-125038094D01*
X144854819Y-123514285D02*
X144854819Y-124085713D01*
X144854819Y-123799999D02*
X143854819Y-123799999D01*
X143854819Y-123799999D02*
X143997676Y-123895237D01*
X143997676Y-123895237D02*
X144092914Y-123990475D01*
X144092914Y-123990475D02*
X144140533Y-124085713D01*
X137033333Y-121354819D02*
X136700000Y-120878628D01*
X136461905Y-121354819D02*
X136461905Y-120354819D01*
X136461905Y-120354819D02*
X136842857Y-120354819D01*
X136842857Y-120354819D02*
X136938095Y-120402438D01*
X136938095Y-120402438D02*
X136985714Y-120450057D01*
X136985714Y-120450057D02*
X137033333Y-120545295D01*
X137033333Y-120545295D02*
X137033333Y-120688152D01*
X137033333Y-120688152D02*
X136985714Y-120783390D01*
X136985714Y-120783390D02*
X136938095Y-120831009D01*
X136938095Y-120831009D02*
X136842857Y-120878628D01*
X136842857Y-120878628D02*
X136461905Y-120878628D01*
X137890476Y-120354819D02*
X137700000Y-120354819D01*
X137700000Y-120354819D02*
X137604762Y-120402438D01*
X137604762Y-120402438D02*
X137557143Y-120450057D01*
X137557143Y-120450057D02*
X137461905Y-120592914D01*
X137461905Y-120592914D02*
X137414286Y-120783390D01*
X137414286Y-120783390D02*
X137414286Y-121164342D01*
X137414286Y-121164342D02*
X137461905Y-121259580D01*
X137461905Y-121259580D02*
X137509524Y-121307200D01*
X137509524Y-121307200D02*
X137604762Y-121354819D01*
X137604762Y-121354819D02*
X137795238Y-121354819D01*
X137795238Y-121354819D02*
X137890476Y-121307200D01*
X137890476Y-121307200D02*
X137938095Y-121259580D01*
X137938095Y-121259580D02*
X137985714Y-121164342D01*
X137985714Y-121164342D02*
X137985714Y-120926247D01*
X137985714Y-120926247D02*
X137938095Y-120831009D01*
X137938095Y-120831009D02*
X137890476Y-120783390D01*
X137890476Y-120783390D02*
X137795238Y-120735771D01*
X137795238Y-120735771D02*
X137604762Y-120735771D01*
X137604762Y-120735771D02*
X137509524Y-120783390D01*
X137509524Y-120783390D02*
X137461905Y-120831009D01*
X137461905Y-120831009D02*
X137414286Y-120926247D01*
X142504761Y-95250057D02*
X142409523Y-95202438D01*
X142409523Y-95202438D02*
X142314285Y-95107200D01*
X142314285Y-95107200D02*
X142171428Y-94964342D01*
X142171428Y-94964342D02*
X142076190Y-94916723D01*
X142076190Y-94916723D02*
X141980952Y-94916723D01*
X142028571Y-95154819D02*
X141933333Y-95107200D01*
X141933333Y-95107200D02*
X141838095Y-95011961D01*
X141838095Y-95011961D02*
X141790476Y-94821485D01*
X141790476Y-94821485D02*
X141790476Y-94488152D01*
X141790476Y-94488152D02*
X141838095Y-94297676D01*
X141838095Y-94297676D02*
X141933333Y-94202438D01*
X141933333Y-94202438D02*
X142028571Y-94154819D01*
X142028571Y-94154819D02*
X142219047Y-94154819D01*
X142219047Y-94154819D02*
X142314285Y-94202438D01*
X142314285Y-94202438D02*
X142409523Y-94297676D01*
X142409523Y-94297676D02*
X142457142Y-94488152D01*
X142457142Y-94488152D02*
X142457142Y-94821485D01*
X142457142Y-94821485D02*
X142409523Y-95011961D01*
X142409523Y-95011961D02*
X142314285Y-95107200D01*
X142314285Y-95107200D02*
X142219047Y-95154819D01*
X142219047Y-95154819D02*
X142028571Y-95154819D01*
X143409523Y-95154819D02*
X142838095Y-95154819D01*
X143123809Y-95154819D02*
X143123809Y-94154819D01*
X143123809Y-94154819D02*
X143028571Y-94297676D01*
X143028571Y-94297676D02*
X142933333Y-94392914D01*
X142933333Y-94392914D02*
X142838095Y-94440533D01*
X151861905Y-94254819D02*
X151861905Y-93254819D01*
X151861905Y-93254819D02*
X152100000Y-93254819D01*
X152100000Y-93254819D02*
X152242857Y-93302438D01*
X152242857Y-93302438D02*
X152338095Y-93397676D01*
X152338095Y-93397676D02*
X152385714Y-93492914D01*
X152385714Y-93492914D02*
X152433333Y-93683390D01*
X152433333Y-93683390D02*
X152433333Y-93826247D01*
X152433333Y-93826247D02*
X152385714Y-94016723D01*
X152385714Y-94016723D02*
X152338095Y-94111961D01*
X152338095Y-94111961D02*
X152242857Y-94207200D01*
X152242857Y-94207200D02*
X152100000Y-94254819D01*
X152100000Y-94254819D02*
X151861905Y-94254819D01*
X152814286Y-93350057D02*
X152861905Y-93302438D01*
X152861905Y-93302438D02*
X152957143Y-93254819D01*
X152957143Y-93254819D02*
X153195238Y-93254819D01*
X153195238Y-93254819D02*
X153290476Y-93302438D01*
X153290476Y-93302438D02*
X153338095Y-93350057D01*
X153338095Y-93350057D02*
X153385714Y-93445295D01*
X153385714Y-93445295D02*
X153385714Y-93540533D01*
X153385714Y-93540533D02*
X153338095Y-93683390D01*
X153338095Y-93683390D02*
X152766667Y-94254819D01*
X152766667Y-94254819D02*
X153385714Y-94254819D01*
X150166666Y-119054819D02*
X150166666Y-119769104D01*
X150166666Y-119769104D02*
X150119047Y-119911961D01*
X150119047Y-119911961D02*
X150023809Y-120007200D01*
X150023809Y-120007200D02*
X149880952Y-120054819D01*
X149880952Y-120054819D02*
X149785714Y-120054819D01*
X151166666Y-120054819D02*
X150595238Y-120054819D01*
X150880952Y-120054819D02*
X150880952Y-119054819D01*
X150880952Y-119054819D02*
X150785714Y-119197676D01*
X150785714Y-119197676D02*
X150690476Y-119292914D01*
X150690476Y-119292914D02*
X150595238Y-119340533D01*
X139633333Y-102454819D02*
X139300000Y-101978628D01*
X139061905Y-102454819D02*
X139061905Y-101454819D01*
X139061905Y-101454819D02*
X139442857Y-101454819D01*
X139442857Y-101454819D02*
X139538095Y-101502438D01*
X139538095Y-101502438D02*
X139585714Y-101550057D01*
X139585714Y-101550057D02*
X139633333Y-101645295D01*
X139633333Y-101645295D02*
X139633333Y-101788152D01*
X139633333Y-101788152D02*
X139585714Y-101883390D01*
X139585714Y-101883390D02*
X139538095Y-101931009D01*
X139538095Y-101931009D02*
X139442857Y-101978628D01*
X139442857Y-101978628D02*
X139061905Y-101978628D01*
X140538095Y-101454819D02*
X140061905Y-101454819D01*
X140061905Y-101454819D02*
X140014286Y-101931009D01*
X140014286Y-101931009D02*
X140061905Y-101883390D01*
X140061905Y-101883390D02*
X140157143Y-101835771D01*
X140157143Y-101835771D02*
X140395238Y-101835771D01*
X140395238Y-101835771D02*
X140490476Y-101883390D01*
X140490476Y-101883390D02*
X140538095Y-101931009D01*
X140538095Y-101931009D02*
X140585714Y-102026247D01*
X140585714Y-102026247D02*
X140585714Y-102264342D01*
X140585714Y-102264342D02*
X140538095Y-102359580D01*
X140538095Y-102359580D02*
X140490476Y-102407200D01*
X140490476Y-102407200D02*
X140395238Y-102454819D01*
X140395238Y-102454819D02*
X140157143Y-102454819D01*
X140157143Y-102454819D02*
X140061905Y-102407200D01*
X140061905Y-102407200D02*
X140014286Y-102359580D01*
X124454819Y-107266666D02*
X123978628Y-107599999D01*
X124454819Y-107838094D02*
X123454819Y-107838094D01*
X123454819Y-107838094D02*
X123454819Y-107457142D01*
X123454819Y-107457142D02*
X123502438Y-107361904D01*
X123502438Y-107361904D02*
X123550057Y-107314285D01*
X123550057Y-107314285D02*
X123645295Y-107266666D01*
X123645295Y-107266666D02*
X123788152Y-107266666D01*
X123788152Y-107266666D02*
X123883390Y-107314285D01*
X123883390Y-107314285D02*
X123931009Y-107361904D01*
X123931009Y-107361904D02*
X123978628Y-107457142D01*
X123978628Y-107457142D02*
X123978628Y-107838094D01*
X123454819Y-106933332D02*
X123454819Y-106314285D01*
X123454819Y-106314285D02*
X123835771Y-106647618D01*
X123835771Y-106647618D02*
X123835771Y-106504761D01*
X123835771Y-106504761D02*
X123883390Y-106409523D01*
X123883390Y-106409523D02*
X123931009Y-106361904D01*
X123931009Y-106361904D02*
X124026247Y-106314285D01*
X124026247Y-106314285D02*
X124264342Y-106314285D01*
X124264342Y-106314285D02*
X124359580Y-106361904D01*
X124359580Y-106361904D02*
X124407200Y-106409523D01*
X124407200Y-106409523D02*
X124454819Y-106504761D01*
X124454819Y-106504761D02*
X124454819Y-106790475D01*
X124454819Y-106790475D02*
X124407200Y-106885713D01*
X124407200Y-106885713D02*
X124359580Y-106933332D01*
X131954819Y-107266666D02*
X131478628Y-107599999D01*
X131954819Y-107838094D02*
X130954819Y-107838094D01*
X130954819Y-107838094D02*
X130954819Y-107457142D01*
X130954819Y-107457142D02*
X131002438Y-107361904D01*
X131002438Y-107361904D02*
X131050057Y-107314285D01*
X131050057Y-107314285D02*
X131145295Y-107266666D01*
X131145295Y-107266666D02*
X131288152Y-107266666D01*
X131288152Y-107266666D02*
X131383390Y-107314285D01*
X131383390Y-107314285D02*
X131431009Y-107361904D01*
X131431009Y-107361904D02*
X131478628Y-107457142D01*
X131478628Y-107457142D02*
X131478628Y-107838094D01*
X131050057Y-106885713D02*
X131002438Y-106838094D01*
X131002438Y-106838094D02*
X130954819Y-106742856D01*
X130954819Y-106742856D02*
X130954819Y-106504761D01*
X130954819Y-106504761D02*
X131002438Y-106409523D01*
X131002438Y-106409523D02*
X131050057Y-106361904D01*
X131050057Y-106361904D02*
X131145295Y-106314285D01*
X131145295Y-106314285D02*
X131240533Y-106314285D01*
X131240533Y-106314285D02*
X131383390Y-106361904D01*
X131383390Y-106361904D02*
X131954819Y-106933332D01*
X131954819Y-106933332D02*
X131954819Y-106314285D01*
X139633333Y-105454819D02*
X139300000Y-104978628D01*
X139061905Y-105454819D02*
X139061905Y-104454819D01*
X139061905Y-104454819D02*
X139442857Y-104454819D01*
X139442857Y-104454819D02*
X139538095Y-104502438D01*
X139538095Y-104502438D02*
X139585714Y-104550057D01*
X139585714Y-104550057D02*
X139633333Y-104645295D01*
X139633333Y-104645295D02*
X139633333Y-104788152D01*
X139633333Y-104788152D02*
X139585714Y-104883390D01*
X139585714Y-104883390D02*
X139538095Y-104931009D01*
X139538095Y-104931009D02*
X139442857Y-104978628D01*
X139442857Y-104978628D02*
X139061905Y-104978628D01*
X140585714Y-105454819D02*
X140014286Y-105454819D01*
X140300000Y-105454819D02*
X140300000Y-104454819D01*
X140300000Y-104454819D02*
X140204762Y-104597676D01*
X140204762Y-104597676D02*
X140109524Y-104692914D01*
X140109524Y-104692914D02*
X140014286Y-104740533D01*
X142154819Y-82458094D02*
X141154819Y-82458094D01*
X142154819Y-81886666D02*
X141583390Y-82315237D01*
X141154819Y-81886666D02*
X141726247Y-82458094D01*
X142154819Y-80934285D02*
X142154819Y-81505713D01*
X142154819Y-81219999D02*
X141154819Y-81219999D01*
X141154819Y-81219999D02*
X141297676Y-81315237D01*
X141297676Y-81315237D02*
X141392914Y-81410475D01*
X141392914Y-81410475D02*
X141440533Y-81505713D01*
X129454819Y-115966666D02*
X128978628Y-116299999D01*
X129454819Y-116538094D02*
X128454819Y-116538094D01*
X128454819Y-116538094D02*
X128454819Y-116157142D01*
X128454819Y-116157142D02*
X128502438Y-116061904D01*
X128502438Y-116061904D02*
X128550057Y-116014285D01*
X128550057Y-116014285D02*
X128645295Y-115966666D01*
X128645295Y-115966666D02*
X128788152Y-115966666D01*
X128788152Y-115966666D02*
X128883390Y-116014285D01*
X128883390Y-116014285D02*
X128931009Y-116061904D01*
X128931009Y-116061904D02*
X128978628Y-116157142D01*
X128978628Y-116157142D02*
X128978628Y-116538094D01*
X128788152Y-115109523D02*
X129454819Y-115109523D01*
X128407200Y-115347618D02*
X129121485Y-115585713D01*
X129121485Y-115585713D02*
X129121485Y-114966666D01*
X135499695Y-110167719D02*
X135499695Y-110977242D01*
X135499695Y-110977242D02*
X135547314Y-111072480D01*
X135547314Y-111072480D02*
X135594933Y-111120100D01*
X135594933Y-111120100D02*
X135690171Y-111167719D01*
X135690171Y-111167719D02*
X135880647Y-111167719D01*
X135880647Y-111167719D02*
X135975885Y-111120100D01*
X135975885Y-111120100D02*
X136023504Y-111072480D01*
X136023504Y-111072480D02*
X136071123Y-110977242D01*
X136071123Y-110977242D02*
X136071123Y-110167719D01*
X137071123Y-111167719D02*
X136499695Y-111167719D01*
X136785409Y-111167719D02*
X136785409Y-110167719D01*
X136785409Y-110167719D02*
X136690171Y-110310576D01*
X136690171Y-110310576D02*
X136594933Y-110405814D01*
X136594933Y-110405814D02*
X136499695Y-110453433D01*
X133618400Y-110143019D02*
X133618400Y-110381114D01*
X133380305Y-110285876D02*
X133618400Y-110381114D01*
X133618400Y-110381114D02*
X133856495Y-110285876D01*
X133475543Y-110571590D02*
X133618400Y-110381114D01*
X133618400Y-110381114D02*
X133761257Y-110571590D01*
X133618400Y-110143019D02*
X133618400Y-110381114D01*
X133380305Y-110285876D02*
X133618400Y-110381114D01*
X133618400Y-110381114D02*
X133856495Y-110285876D01*
X133475543Y-110571590D02*
X133618400Y-110381114D01*
X133618400Y-110381114D02*
X133761257Y-110571590D01*
X132366666Y-80654819D02*
X132366666Y-81369104D01*
X132366666Y-81369104D02*
X132319047Y-81511961D01*
X132319047Y-81511961D02*
X132223809Y-81607200D01*
X132223809Y-81607200D02*
X132080952Y-81654819D01*
X132080952Y-81654819D02*
X131985714Y-81654819D01*
X132747619Y-80654819D02*
X133366666Y-80654819D01*
X133366666Y-80654819D02*
X133033333Y-81035771D01*
X133033333Y-81035771D02*
X133176190Y-81035771D01*
X133176190Y-81035771D02*
X133271428Y-81083390D01*
X133271428Y-81083390D02*
X133319047Y-81131009D01*
X133319047Y-81131009D02*
X133366666Y-81226247D01*
X133366666Y-81226247D02*
X133366666Y-81464342D01*
X133366666Y-81464342D02*
X133319047Y-81559580D01*
X133319047Y-81559580D02*
X133271428Y-81607200D01*
X133271428Y-81607200D02*
X133176190Y-81654819D01*
X133176190Y-81654819D02*
X132890476Y-81654819D01*
X132890476Y-81654819D02*
X132795238Y-81607200D01*
X132795238Y-81607200D02*
X132747619Y-81559580D01*
X141483333Y-110759580D02*
X141435714Y-110807200D01*
X141435714Y-110807200D02*
X141292857Y-110854819D01*
X141292857Y-110854819D02*
X141197619Y-110854819D01*
X141197619Y-110854819D02*
X141054762Y-110807200D01*
X141054762Y-110807200D02*
X140959524Y-110711961D01*
X140959524Y-110711961D02*
X140911905Y-110616723D01*
X140911905Y-110616723D02*
X140864286Y-110426247D01*
X140864286Y-110426247D02*
X140864286Y-110283390D01*
X140864286Y-110283390D02*
X140911905Y-110092914D01*
X140911905Y-110092914D02*
X140959524Y-109997676D01*
X140959524Y-109997676D02*
X141054762Y-109902438D01*
X141054762Y-109902438D02*
X141197619Y-109854819D01*
X141197619Y-109854819D02*
X141292857Y-109854819D01*
X141292857Y-109854819D02*
X141435714Y-109902438D01*
X141435714Y-109902438D02*
X141483333Y-109950057D01*
X141864286Y-109950057D02*
X141911905Y-109902438D01*
X141911905Y-109902438D02*
X142007143Y-109854819D01*
X142007143Y-109854819D02*
X142245238Y-109854819D01*
X142245238Y-109854819D02*
X142340476Y-109902438D01*
X142340476Y-109902438D02*
X142388095Y-109950057D01*
X142388095Y-109950057D02*
X142435714Y-110045295D01*
X142435714Y-110045295D02*
X142435714Y-110140533D01*
X142435714Y-110140533D02*
X142388095Y-110283390D01*
X142388095Y-110283390D02*
X141816667Y-110854819D01*
X141816667Y-110854819D02*
X142435714Y-110854819D01*
X123033333Y-105259580D02*
X122985714Y-105307200D01*
X122985714Y-105307200D02*
X122842857Y-105354819D01*
X122842857Y-105354819D02*
X122747619Y-105354819D01*
X122747619Y-105354819D02*
X122604762Y-105307200D01*
X122604762Y-105307200D02*
X122509524Y-105211961D01*
X122509524Y-105211961D02*
X122461905Y-105116723D01*
X122461905Y-105116723D02*
X122414286Y-104926247D01*
X122414286Y-104926247D02*
X122414286Y-104783390D01*
X122414286Y-104783390D02*
X122461905Y-104592914D01*
X122461905Y-104592914D02*
X122509524Y-104497676D01*
X122509524Y-104497676D02*
X122604762Y-104402438D01*
X122604762Y-104402438D02*
X122747619Y-104354819D01*
X122747619Y-104354819D02*
X122842857Y-104354819D01*
X122842857Y-104354819D02*
X122985714Y-104402438D01*
X122985714Y-104402438D02*
X123033333Y-104450057D01*
X123985714Y-105354819D02*
X123414286Y-105354819D01*
X123700000Y-105354819D02*
X123700000Y-104354819D01*
X123700000Y-104354819D02*
X123604762Y-104497676D01*
X123604762Y-104497676D02*
X123509524Y-104592914D01*
X123509524Y-104592914D02*
X123414286Y-104640533D01*
X153204761Y-97750057D02*
X153109523Y-97702438D01*
X153109523Y-97702438D02*
X153014285Y-97607200D01*
X153014285Y-97607200D02*
X152871428Y-97464342D01*
X152871428Y-97464342D02*
X152776190Y-97416723D01*
X152776190Y-97416723D02*
X152680952Y-97416723D01*
X152728571Y-97654819D02*
X152633333Y-97607200D01*
X152633333Y-97607200D02*
X152538095Y-97511961D01*
X152538095Y-97511961D02*
X152490476Y-97321485D01*
X152490476Y-97321485D02*
X152490476Y-96988152D01*
X152490476Y-96988152D02*
X152538095Y-96797676D01*
X152538095Y-96797676D02*
X152633333Y-96702438D01*
X152633333Y-96702438D02*
X152728571Y-96654819D01*
X152728571Y-96654819D02*
X152919047Y-96654819D01*
X152919047Y-96654819D02*
X153014285Y-96702438D01*
X153014285Y-96702438D02*
X153109523Y-96797676D01*
X153109523Y-96797676D02*
X153157142Y-96988152D01*
X153157142Y-96988152D02*
X153157142Y-97321485D01*
X153157142Y-97321485D02*
X153109523Y-97511961D01*
X153109523Y-97511961D02*
X153014285Y-97607200D01*
X153014285Y-97607200D02*
X152919047Y-97654819D01*
X152919047Y-97654819D02*
X152728571Y-97654819D01*
X153538095Y-96750057D02*
X153585714Y-96702438D01*
X153585714Y-96702438D02*
X153680952Y-96654819D01*
X153680952Y-96654819D02*
X153919047Y-96654819D01*
X153919047Y-96654819D02*
X154014285Y-96702438D01*
X154014285Y-96702438D02*
X154061904Y-96750057D01*
X154061904Y-96750057D02*
X154109523Y-96845295D01*
X154109523Y-96845295D02*
X154109523Y-96940533D01*
X154109523Y-96940533D02*
X154061904Y-97083390D01*
X154061904Y-97083390D02*
X153490476Y-97654819D01*
X153490476Y-97654819D02*
X154109523Y-97654819D01*
X132266666Y-97054819D02*
X132266666Y-97769104D01*
X132266666Y-97769104D02*
X132219047Y-97911961D01*
X132219047Y-97911961D02*
X132123809Y-98007200D01*
X132123809Y-98007200D02*
X131980952Y-98054819D01*
X131980952Y-98054819D02*
X131885714Y-98054819D01*
X132695238Y-97150057D02*
X132742857Y-97102438D01*
X132742857Y-97102438D02*
X132838095Y-97054819D01*
X132838095Y-97054819D02*
X133076190Y-97054819D01*
X133076190Y-97054819D02*
X133171428Y-97102438D01*
X133171428Y-97102438D02*
X133219047Y-97150057D01*
X133219047Y-97150057D02*
X133266666Y-97245295D01*
X133266666Y-97245295D02*
X133266666Y-97340533D01*
X133266666Y-97340533D02*
X133219047Y-97483390D01*
X133219047Y-97483390D02*
X132647619Y-98054819D01*
X132647619Y-98054819D02*
X133266666Y-98054819D01*
%TO.C,R7*%
D12*
X151970000Y-109670000D02*
X145430000Y-109670000D01*
X151970000Y-109340000D02*
X151970000Y-109670000D01*
X151970000Y-107260000D02*
X151970000Y-106930000D01*
X151970000Y-106930000D02*
X145430000Y-106930000D01*
X145430000Y-109670000D02*
X145430000Y-109340000D01*
X145430000Y-106930000D02*
X145430000Y-107260000D01*
%TO.C,D1*%
X146700000Y-116060000D02*
X146700000Y-117080000D01*
X146700000Y-123540000D02*
X146700000Y-122520000D01*
X148170000Y-117860000D02*
X145230000Y-117860000D01*
X148170000Y-117980000D02*
X145230000Y-117980000D01*
X148170000Y-118100000D02*
X145230000Y-118100000D01*
X145230000Y-117080000D02*
X148170000Y-117080000D01*
X148170000Y-122520000D01*
X145230000Y-122520000D01*
X145230000Y-117080000D01*
%TO.C,R6*%
X134130000Y-117430000D02*
X140670000Y-117430000D01*
X134130000Y-117760000D02*
X134130000Y-117430000D01*
X134130000Y-119840000D02*
X134130000Y-120170000D01*
X134130000Y-120170000D02*
X140670000Y-120170000D01*
X140670000Y-117430000D02*
X140670000Y-117760000D01*
X140670000Y-120170000D02*
X140670000Y-119840000D01*
%TO.C,Q1*%
X145430000Y-95450000D02*
X141830000Y-95450000D01*
X142850000Y-99750000D02*
G75*
G02*
X141821555Y-95472316I780000J2450000D01*
G01*
X145441875Y-95458259D02*
G75*
G02*
X144450000Y-99750000I-1811875J-1841741D01*
G01*
%TO.C,D2*%
X145850000Y-93900000D02*
X146500000Y-93900000D01*
X147150000Y-92780000D02*
X147150000Y-95020000D01*
X147250000Y-92780000D02*
X147250000Y-95020000D01*
X147375000Y-92780000D02*
X147375000Y-95020000D01*
X150350000Y-93900000D02*
X149700000Y-93900000D01*
X146500000Y-92780000D02*
X149700000Y-92780000D01*
X149700000Y-95020000D01*
X146500000Y-95020000D01*
X146500000Y-92780000D01*
%TO.C,J1*%
X151820000Y-110750000D02*
X153200000Y-110750000D01*
X151820000Y-112130000D02*
X151820000Y-110750000D01*
X151820000Y-113400000D02*
X151820000Y-121130000D01*
X151820000Y-113400000D02*
X154580000Y-113400000D01*
X151820000Y-121130000D02*
X154580000Y-121130000D01*
X154580000Y-113400000D02*
X154580000Y-121130000D01*
%TO.C,R5*%
X142330000Y-100730000D02*
X148870000Y-100730000D01*
X142330000Y-101060000D02*
X142330000Y-100730000D01*
X142330000Y-103140000D02*
X142330000Y-103470000D01*
X142330000Y-103470000D02*
X148870000Y-103470000D01*
X148870000Y-100730000D02*
X148870000Y-101060000D01*
X148870000Y-103470000D02*
X148870000Y-103140000D01*
%TO.C,R3*%
X124730000Y-100230000D02*
X125060000Y-100230000D01*
X124730000Y-106770000D02*
X124730000Y-100230000D01*
X125060000Y-106770000D02*
X124730000Y-106770000D01*
X127140000Y-106770000D02*
X127470000Y-106770000D01*
X127470000Y-100230000D02*
X127140000Y-100230000D01*
X127470000Y-106770000D02*
X127470000Y-100230000D01*
%TO.C,R2*%
X127830000Y-100230000D02*
X127830000Y-106770000D01*
X127830000Y-106770000D02*
X128160000Y-106770000D01*
X128160000Y-100230000D02*
X127830000Y-100230000D01*
X130240000Y-100230000D02*
X130570000Y-100230000D01*
X130570000Y-100230000D02*
X130570000Y-106770000D01*
X130570000Y-106770000D02*
X130240000Y-106770000D01*
%TO.C,R1*%
X142330000Y-103830000D02*
X142330000Y-104160000D01*
X142330000Y-106570000D02*
X142330000Y-106240000D01*
X148870000Y-103830000D02*
X142330000Y-103830000D01*
X148870000Y-104160000D02*
X148870000Y-103830000D01*
X148870000Y-106240000D02*
X148870000Y-106570000D01*
X148870000Y-106570000D02*
X142330000Y-106570000D01*
%TO.C,K1*%
X142630000Y-71870000D02*
X152950000Y-71870000D01*
X142630000Y-92390000D02*
X142630000Y-71870000D01*
X147500000Y-90420000D02*
X147500000Y-91620000D01*
X147500000Y-91020000D02*
X146400000Y-91020000D01*
X147500000Y-91620000D02*
X148200000Y-91620000D01*
X148200000Y-90420000D02*
X147500000Y-90420000D01*
X148200000Y-90820000D02*
X147500000Y-91220000D01*
X148200000Y-91020000D02*
X149300000Y-91020000D01*
X148200000Y-91620000D02*
X148200000Y-90420000D01*
X152950000Y-71870000D02*
X152950000Y-92390000D01*
X152950000Y-92390000D02*
X142630000Y-92390000D01*
X153200000Y-90920000D02*
X153200000Y-92640000D01*
X153200000Y-92640000D02*
X151700000Y-92640000D01*
%TO.C,R4*%
X129530000Y-112930000D02*
X129860000Y-112930000D01*
X129530000Y-119470000D02*
X129530000Y-112930000D01*
X129860000Y-119470000D02*
X129530000Y-119470000D01*
X131940000Y-119470000D02*
X132270000Y-119470000D01*
X132270000Y-112930000D02*
X131940000Y-112930000D01*
X132270000Y-119470000D02*
X132270000Y-112930000D01*
%TO.C,U1*%
D13*
X134962547Y-116796900D02*
X137709853Y-116796900D01*
X137709853Y-111793100D02*
X134962547Y-111793100D01*
X136641000Y-111793100D02*
G75*
G02*
X136031400Y-111793100I-304800J0D01*
G01*
%TO.C,J3*%
D12*
X121480000Y-71240000D02*
X131520000Y-71240000D01*
X121480000Y-73600000D02*
X121480000Y-71240000D01*
X121480000Y-81640000D02*
X121480000Y-74200000D01*
X122100000Y-71240000D02*
X122100000Y-81640000D01*
X123600000Y-71240000D02*
X123600000Y-81640000D01*
X128500000Y-71240000D02*
X128500000Y-81640000D01*
X131520000Y-71240000D02*
X131520000Y-81640000D01*
X131520000Y-81640000D02*
X121480000Y-81640000D01*
X121480000Y-73900000D02*
X120870000Y-74340000D01*
X120870000Y-73460000D01*
X121480000Y-73900000D01*
G36*
X121480000Y-73900000D02*
G01*
X120870000Y-74340000D01*
X120870000Y-73460000D01*
X121480000Y-73900000D01*
G37*
%TO.C,C2*%
X140430000Y-111030000D02*
X143170000Y-111030000D01*
X140430000Y-116270000D02*
X140430000Y-111030000D01*
X143170000Y-111030000D02*
X143170000Y-116270000D01*
X143170000Y-116270000D02*
X140430000Y-116270000D01*
%TO.C,C1*%
X121630000Y-98780000D02*
X124370000Y-98780000D01*
X121630000Y-104020000D02*
X121630000Y-98780000D01*
X124370000Y-98780000D02*
X124370000Y-104020000D01*
X124370000Y-104020000D02*
X121630000Y-104020000D01*
%TO.C,Q2*%
X151170000Y-95450000D02*
X147570000Y-95450000D01*
X148590000Y-99750000D02*
G75*
G02*
X147561555Y-95472316I780000J2450000D01*
G01*
X151181875Y-95458259D02*
G75*
G02*
X150190000Y-99750000I-1811875J-1841741D01*
G01*
%TO.C,J2*%
X121407500Y-82655000D02*
X131447500Y-82655000D01*
X121407500Y-85015000D02*
X121407500Y-82655000D01*
X121407500Y-98135000D02*
X121407500Y-85615000D01*
X122027500Y-82655000D02*
X122027500Y-98135000D01*
X123527500Y-82655000D02*
X123527500Y-98135000D01*
X128427500Y-82655000D02*
X128427500Y-98135000D01*
X131447500Y-82655000D02*
X131447500Y-98135000D01*
X131447500Y-98135000D02*
X121407500Y-98135000D01*
X121407500Y-85315000D02*
X120797500Y-85755000D01*
X120797500Y-84875000D01*
X121407500Y-85315000D01*
G36*
X121407500Y-85315000D02*
G01*
X120797500Y-85755000D01*
X120797500Y-84875000D01*
X121407500Y-85315000D01*
G37*
%TD*%
D14*
X120000000Y-70000000D02*
X155000000Y-70000000D01*
X155000000Y-130000000D01*
X120000000Y-130000000D01*
X120000000Y-70000000D01*
M02*
