%TF.GenerationSoftware,KiCad,Pcbnew,10.0.3*%
%TF.CreationDate,2026-09-10T16:40:45-03:00*%
%TF.ProjectId,Placa de Corte TX,506c6163-6120-4646-9520-436f72746520,rev?*%
%TF.SameCoordinates,Original*%
%TF.FileFunction,Other,User*%
%FSLAX46Y46*%
G04 Gerber Fmt 4.6, Leading zero omitted, Abs format (unit mm)*
G04 Created by KiCad (PCBNEW 10.0.3) date 2026-09-10 16:40:45*
%MOMM*%
%LPD*%
G01*
G04 APERTURE LIST*
%ADD10C,0.050000*%
%ADD11C,0.152400*%
%TA.AperFunction,Profile*%
%ADD12C,1.000000*%
%TD*%
G04 APERTURE END LIST*
%TO.C,R7*%
D10*
X143840000Y-106800000D02*
X153560000Y-106800000D01*
X153560000Y-109800000D01*
X143840000Y-109800000D01*
X143840000Y-106800000D01*
%TO.C,H1*%
X140950000Y-126000000D02*
G75*
G02*
X134050000Y-126000000I-3450000J0D01*
G01*
X134050000Y-126000000D02*
G75*
G02*
X140950000Y-126000000I3450000J0D01*
G01*
%TO.C,D1*%
X145100000Y-113370000D02*
X148300000Y-113370000D01*
X148300000Y-126230000D01*
X145100000Y-126230000D01*
X145100000Y-113370000D01*
%TO.C,R6*%
X132540000Y-117300000D02*
X142260000Y-117300000D01*
X142260000Y-120300000D01*
X132540000Y-120300000D01*
X132540000Y-117300000D01*
%TO.C,Q1*%
X140900000Y-95290000D02*
X140900000Y-100350000D01*
X140900000Y-95290000D02*
X146360000Y-95290000D01*
X146360000Y-100350000D02*
X140900000Y-100350000D01*
X146360000Y-100350000D02*
X146360000Y-95290000D01*
%TO.C,D2*%
X144750000Y-92650000D02*
X151450000Y-92650000D01*
X151450000Y-95150000D01*
X144750000Y-95150000D01*
X144750000Y-92650000D01*
%TO.C,H2*%
X140950000Y-74000000D02*
G75*
G02*
X134050000Y-74000000I-3450000J0D01*
G01*
X134050000Y-74000000D02*
G75*
G02*
X140950000Y-74000000I3450000J0D01*
G01*
%TO.C,J1*%
X151430000Y-110360000D02*
X154970000Y-110360000D01*
X154970000Y-121520000D01*
X151430000Y-121520000D01*
X151430000Y-110360000D01*
%TO.C,R5*%
X140740000Y-100600000D02*
X150460000Y-100600000D01*
X150460000Y-103600000D01*
X140740000Y-103600000D01*
X140740000Y-100600000D01*
%TO.C,R3*%
X124600000Y-98640000D02*
X127600000Y-98640000D01*
X127600000Y-108360000D01*
X124600000Y-108360000D01*
X124600000Y-98640000D01*
%TO.C,R2*%
X127700000Y-98640000D02*
X130700000Y-98640000D01*
X130700000Y-108360000D01*
X127700000Y-108360000D01*
X127700000Y-98640000D01*
%TO.C,R1*%
X140740000Y-103700000D02*
X150460000Y-103700000D01*
X150460000Y-106700000D01*
X140740000Y-106700000D01*
X140740000Y-103700000D01*
%TO.C,K1*%
X142490000Y-92530000D02*
X142490000Y-71730000D01*
X142490000Y-92530000D02*
X153090000Y-92530000D01*
X153090000Y-71730000D02*
X142490000Y-71730000D01*
X153090000Y-71730000D02*
X153090000Y-92530000D01*
%TO.C,R4*%
X129400000Y-111340000D02*
X132400000Y-111340000D01*
X132400000Y-121060000D01*
X129400000Y-121060000D01*
X129400000Y-111340000D01*
%TO.C,U1*%
D11*
X132627800Y-111539100D02*
X140044600Y-111539100D01*
X132627800Y-117050900D02*
X132627800Y-111539100D01*
X140044600Y-111539100D02*
X140044600Y-117050900D01*
X140044600Y-117050900D02*
X132627800Y-117050900D01*
%TO.C,J3*%
D10*
X121100000Y-70860000D02*
X131910000Y-70860000D01*
X131910000Y-82030000D01*
X121100000Y-82030000D01*
X121100000Y-70860000D01*
%TO.C,C2*%
X140300000Y-110900000D02*
X143300000Y-110900000D01*
X143300000Y-116400000D01*
X140300000Y-116400000D01*
X140300000Y-110900000D01*
%TO.C,C1*%
X121500000Y-98650000D02*
X124500000Y-98650000D01*
X124500000Y-104150000D01*
X121500000Y-104150000D01*
X121500000Y-98650000D01*
%TO.C,Q2*%
X146640000Y-95290000D02*
X146640000Y-100350000D01*
X146640000Y-95290000D02*
X152100000Y-95290000D01*
X152100000Y-100350000D02*
X146640000Y-100350000D01*
X152100000Y-100350000D02*
X152100000Y-95290000D01*
%TO.C,J2*%
X121027500Y-82275000D02*
X131837500Y-82275000D01*
X131837500Y-98525000D01*
X121027500Y-98525000D01*
X121027500Y-82275000D01*
%TD*%
D12*
X120000000Y-70000000D02*
X155000000Y-70000000D01*
X155000000Y-130000000D01*
X120000000Y-130000000D01*
X120000000Y-70000000D01*
M02*
