%TF.GenerationSoftware,KiCad,Pcbnew,10.0.3*%
%TF.CreationDate,2026-09-10T16:40:45-03:00*%
%TF.ProjectId,Placa de Corte TX,506c6163-6120-4646-9520-436f72746520,rev?*%
%TF.SameCoordinates,Original*%
%TF.FileFunction,AssemblyDrawing,Top*%
%FSLAX46Y46*%
G04 Gerber Fmt 4.6, Leading zero omitted, Abs format (unit mm)*
G04 Created by KiCad (PCBNEW 10.0.3) date 2026-09-10 16:40:45*
%MOMM*%
%LPD*%
G01*
G04 APERTURE LIST*
%ADD10C,0.150000*%
%ADD11C,0.100000*%
%ADD12C,0.025400*%
%TA.AperFunction,Profile*%
%ADD13C,1.000000*%
%TD*%
G04 APERTURE END LIST*
D10*
X148533333Y-108754819D02*
X148200000Y-108278628D01*
X147961905Y-108754819D02*
X147961905Y-107754819D01*
X147961905Y-107754819D02*
X148342857Y-107754819D01*
X148342857Y-107754819D02*
X148438095Y-107802438D01*
X148438095Y-107802438D02*
X148485714Y-107850057D01*
X148485714Y-107850057D02*
X148533333Y-107945295D01*
X148533333Y-107945295D02*
X148533333Y-108088152D01*
X148533333Y-108088152D02*
X148485714Y-108183390D01*
X148485714Y-108183390D02*
X148438095Y-108231009D01*
X148438095Y-108231009D02*
X148342857Y-108278628D01*
X148342857Y-108278628D02*
X147961905Y-108278628D01*
X148866667Y-107754819D02*
X149533333Y-107754819D01*
X149533333Y-107754819D02*
X149104762Y-108754819D01*
X136738095Y-126454819D02*
X136738095Y-125454819D01*
X136738095Y-125931009D02*
X137309523Y-125931009D01*
X137309523Y-126454819D02*
X137309523Y-125454819D01*
X138309523Y-126454819D02*
X137738095Y-126454819D01*
X138023809Y-126454819D02*
X138023809Y-125454819D01*
X138023809Y-125454819D02*
X137928571Y-125597676D01*
X137928571Y-125597676D02*
X137833333Y-125692914D01*
X137833333Y-125692914D02*
X137738095Y-125740533D01*
X144654819Y-122371428D02*
X144654819Y-122942856D01*
X144654819Y-122657142D02*
X143654819Y-122657142D01*
X143654819Y-122657142D02*
X143797676Y-122752380D01*
X143797676Y-122752380D02*
X143892914Y-122847618D01*
X143892914Y-122847618D02*
X143940533Y-122942856D01*
X144654819Y-121942856D02*
X143654819Y-121942856D01*
X143654819Y-121942856D02*
X144654819Y-121371428D01*
X144654819Y-121371428D02*
X143654819Y-121371428D01*
X143988152Y-120466666D02*
X144654819Y-120466666D01*
X143607200Y-120704761D02*
X144321485Y-120942856D01*
X144321485Y-120942856D02*
X144321485Y-120323809D01*
X143654819Y-120038094D02*
X143654819Y-119371428D01*
X143654819Y-119371428D02*
X144654819Y-119799999D01*
X143654819Y-119085713D02*
X143654819Y-118466666D01*
X143654819Y-118466666D02*
X144035771Y-118799999D01*
X144035771Y-118799999D02*
X144035771Y-118657142D01*
X144035771Y-118657142D02*
X144083390Y-118561904D01*
X144083390Y-118561904D02*
X144131009Y-118514285D01*
X144131009Y-118514285D02*
X144226247Y-118466666D01*
X144226247Y-118466666D02*
X144464342Y-118466666D01*
X144464342Y-118466666D02*
X144559580Y-118514285D01*
X144559580Y-118514285D02*
X144607200Y-118561904D01*
X144607200Y-118561904D02*
X144654819Y-118657142D01*
X144654819Y-118657142D02*
X144654819Y-118942856D01*
X144654819Y-118942856D02*
X144607200Y-119038094D01*
X144607200Y-119038094D02*
X144559580Y-119085713D01*
X143654819Y-118133332D02*
X143654819Y-117514285D01*
X143654819Y-117514285D02*
X144035771Y-117847618D01*
X144035771Y-117847618D02*
X144035771Y-117704761D01*
X144035771Y-117704761D02*
X144083390Y-117609523D01*
X144083390Y-117609523D02*
X144131009Y-117561904D01*
X144131009Y-117561904D02*
X144226247Y-117514285D01*
X144226247Y-117514285D02*
X144464342Y-117514285D01*
X144464342Y-117514285D02*
X144559580Y-117561904D01*
X144559580Y-117561904D02*
X144607200Y-117609523D01*
X144607200Y-117609523D02*
X144654819Y-117704761D01*
X144654819Y-117704761D02*
X144654819Y-117990475D01*
X144654819Y-117990475D02*
X144607200Y-118085713D01*
X144607200Y-118085713D02*
X144559580Y-118133332D01*
X144369104Y-117133332D02*
X144369104Y-116657142D01*
X144654819Y-117228570D02*
X143654819Y-116895237D01*
X143654819Y-116895237D02*
X144654819Y-116561904D01*
X147154819Y-120928094D02*
X146154819Y-120928094D01*
X146154819Y-120928094D02*
X146154819Y-120689999D01*
X146154819Y-120689999D02*
X146202438Y-120547142D01*
X146202438Y-120547142D02*
X146297676Y-120451904D01*
X146297676Y-120451904D02*
X146392914Y-120404285D01*
X146392914Y-120404285D02*
X146583390Y-120356666D01*
X146583390Y-120356666D02*
X146726247Y-120356666D01*
X146726247Y-120356666D02*
X146916723Y-120404285D01*
X146916723Y-120404285D02*
X147011961Y-120451904D01*
X147011961Y-120451904D02*
X147107200Y-120547142D01*
X147107200Y-120547142D02*
X147154819Y-120689999D01*
X147154819Y-120689999D02*
X147154819Y-120928094D01*
X147154819Y-119404285D02*
X147154819Y-119975713D01*
X147154819Y-119689999D02*
X146154819Y-119689999D01*
X146154819Y-119689999D02*
X146297676Y-119785237D01*
X146297676Y-119785237D02*
X146392914Y-119880475D01*
X146392914Y-119880475D02*
X146440533Y-119975713D01*
X137233333Y-119254819D02*
X136900000Y-118778628D01*
X136661905Y-119254819D02*
X136661905Y-118254819D01*
X136661905Y-118254819D02*
X137042857Y-118254819D01*
X137042857Y-118254819D02*
X137138095Y-118302438D01*
X137138095Y-118302438D02*
X137185714Y-118350057D01*
X137185714Y-118350057D02*
X137233333Y-118445295D01*
X137233333Y-118445295D02*
X137233333Y-118588152D01*
X137233333Y-118588152D02*
X137185714Y-118683390D01*
X137185714Y-118683390D02*
X137138095Y-118731009D01*
X137138095Y-118731009D02*
X137042857Y-118778628D01*
X137042857Y-118778628D02*
X136661905Y-118778628D01*
X138090476Y-118254819D02*
X137900000Y-118254819D01*
X137900000Y-118254819D02*
X137804762Y-118302438D01*
X137804762Y-118302438D02*
X137757143Y-118350057D01*
X137757143Y-118350057D02*
X137661905Y-118492914D01*
X137661905Y-118492914D02*
X137614286Y-118683390D01*
X137614286Y-118683390D02*
X137614286Y-119064342D01*
X137614286Y-119064342D02*
X137661905Y-119159580D01*
X137661905Y-119159580D02*
X137709524Y-119207200D01*
X137709524Y-119207200D02*
X137804762Y-119254819D01*
X137804762Y-119254819D02*
X137995238Y-119254819D01*
X137995238Y-119254819D02*
X138090476Y-119207200D01*
X138090476Y-119207200D02*
X138138095Y-119159580D01*
X138138095Y-119159580D02*
X138185714Y-119064342D01*
X138185714Y-119064342D02*
X138185714Y-118826247D01*
X138185714Y-118826247D02*
X138138095Y-118731009D01*
X138138095Y-118731009D02*
X138090476Y-118683390D01*
X138090476Y-118683390D02*
X137995238Y-118635771D01*
X137995238Y-118635771D02*
X137804762Y-118635771D01*
X137804762Y-118635771D02*
X137709524Y-118683390D01*
X137709524Y-118683390D02*
X137661905Y-118731009D01*
X137661905Y-118731009D02*
X137614286Y-118826247D01*
X143534761Y-97850057D02*
X143439523Y-97802438D01*
X143439523Y-97802438D02*
X143344285Y-97707200D01*
X143344285Y-97707200D02*
X143201428Y-97564342D01*
X143201428Y-97564342D02*
X143106190Y-97516723D01*
X143106190Y-97516723D02*
X143010952Y-97516723D01*
X143058571Y-97754819D02*
X142963333Y-97707200D01*
X142963333Y-97707200D02*
X142868095Y-97611961D01*
X142868095Y-97611961D02*
X142820476Y-97421485D01*
X142820476Y-97421485D02*
X142820476Y-97088152D01*
X142820476Y-97088152D02*
X142868095Y-96897676D01*
X142868095Y-96897676D02*
X142963333Y-96802438D01*
X142963333Y-96802438D02*
X143058571Y-96754819D01*
X143058571Y-96754819D02*
X143249047Y-96754819D01*
X143249047Y-96754819D02*
X143344285Y-96802438D01*
X143344285Y-96802438D02*
X143439523Y-96897676D01*
X143439523Y-96897676D02*
X143487142Y-97088152D01*
X143487142Y-97088152D02*
X143487142Y-97421485D01*
X143487142Y-97421485D02*
X143439523Y-97611961D01*
X143439523Y-97611961D02*
X143344285Y-97707200D01*
X143344285Y-97707200D02*
X143249047Y-97754819D01*
X143249047Y-97754819D02*
X143058571Y-97754819D01*
X144439523Y-97754819D02*
X143868095Y-97754819D01*
X144153809Y-97754819D02*
X144153809Y-96754819D01*
X144153809Y-96754819D02*
X144058571Y-96897676D01*
X144058571Y-96897676D02*
X143963333Y-96992914D01*
X143963333Y-96992914D02*
X143868095Y-97040533D01*
X147361905Y-94354819D02*
X147361905Y-93354819D01*
X147361905Y-93354819D02*
X147600000Y-93354819D01*
X147600000Y-93354819D02*
X147742857Y-93402438D01*
X147742857Y-93402438D02*
X147838095Y-93497676D01*
X147838095Y-93497676D02*
X147885714Y-93592914D01*
X147885714Y-93592914D02*
X147933333Y-93783390D01*
X147933333Y-93783390D02*
X147933333Y-93926247D01*
X147933333Y-93926247D02*
X147885714Y-94116723D01*
X147885714Y-94116723D02*
X147838095Y-94211961D01*
X147838095Y-94211961D02*
X147742857Y-94307200D01*
X147742857Y-94307200D02*
X147600000Y-94354819D01*
X147600000Y-94354819D02*
X147361905Y-94354819D01*
X148314286Y-93450057D02*
X148361905Y-93402438D01*
X148361905Y-93402438D02*
X148457143Y-93354819D01*
X148457143Y-93354819D02*
X148695238Y-93354819D01*
X148695238Y-93354819D02*
X148790476Y-93402438D01*
X148790476Y-93402438D02*
X148838095Y-93450057D01*
X148838095Y-93450057D02*
X148885714Y-93545295D01*
X148885714Y-93545295D02*
X148885714Y-93640533D01*
X148885714Y-93640533D02*
X148838095Y-93783390D01*
X148838095Y-93783390D02*
X148266667Y-94354819D01*
X148266667Y-94354819D02*
X148885714Y-94354819D01*
X136738095Y-74454819D02*
X136738095Y-73454819D01*
X136738095Y-73931009D02*
X137309523Y-73931009D01*
X137309523Y-74454819D02*
X137309523Y-73454819D01*
X137738095Y-73550057D02*
X137785714Y-73502438D01*
X137785714Y-73502438D02*
X137880952Y-73454819D01*
X137880952Y-73454819D02*
X138119047Y-73454819D01*
X138119047Y-73454819D02*
X138214285Y-73502438D01*
X138214285Y-73502438D02*
X138261904Y-73550057D01*
X138261904Y-73550057D02*
X138309523Y-73645295D01*
X138309523Y-73645295D02*
X138309523Y-73740533D01*
X138309523Y-73740533D02*
X138261904Y-73883390D01*
X138261904Y-73883390D02*
X137690476Y-74454819D01*
X137690476Y-74454819D02*
X138309523Y-74454819D01*
X145433333Y-102554819D02*
X145100000Y-102078628D01*
X144861905Y-102554819D02*
X144861905Y-101554819D01*
X144861905Y-101554819D02*
X145242857Y-101554819D01*
X145242857Y-101554819D02*
X145338095Y-101602438D01*
X145338095Y-101602438D02*
X145385714Y-101650057D01*
X145385714Y-101650057D02*
X145433333Y-101745295D01*
X145433333Y-101745295D02*
X145433333Y-101888152D01*
X145433333Y-101888152D02*
X145385714Y-101983390D01*
X145385714Y-101983390D02*
X145338095Y-102031009D01*
X145338095Y-102031009D02*
X145242857Y-102078628D01*
X145242857Y-102078628D02*
X144861905Y-102078628D01*
X146338095Y-101554819D02*
X145861905Y-101554819D01*
X145861905Y-101554819D02*
X145814286Y-102031009D01*
X145814286Y-102031009D02*
X145861905Y-101983390D01*
X145861905Y-101983390D02*
X145957143Y-101935771D01*
X145957143Y-101935771D02*
X146195238Y-101935771D01*
X146195238Y-101935771D02*
X146290476Y-101983390D01*
X146290476Y-101983390D02*
X146338095Y-102031009D01*
X146338095Y-102031009D02*
X146385714Y-102126247D01*
X146385714Y-102126247D02*
X146385714Y-102364342D01*
X146385714Y-102364342D02*
X146338095Y-102459580D01*
X146338095Y-102459580D02*
X146290476Y-102507200D01*
X146290476Y-102507200D02*
X146195238Y-102554819D01*
X146195238Y-102554819D02*
X145957143Y-102554819D01*
X145957143Y-102554819D02*
X145861905Y-102507200D01*
X145861905Y-102507200D02*
X145814286Y-102459580D01*
X126554819Y-103666666D02*
X126078628Y-103999999D01*
X126554819Y-104238094D02*
X125554819Y-104238094D01*
X125554819Y-104238094D02*
X125554819Y-103857142D01*
X125554819Y-103857142D02*
X125602438Y-103761904D01*
X125602438Y-103761904D02*
X125650057Y-103714285D01*
X125650057Y-103714285D02*
X125745295Y-103666666D01*
X125745295Y-103666666D02*
X125888152Y-103666666D01*
X125888152Y-103666666D02*
X125983390Y-103714285D01*
X125983390Y-103714285D02*
X126031009Y-103761904D01*
X126031009Y-103761904D02*
X126078628Y-103857142D01*
X126078628Y-103857142D02*
X126078628Y-104238094D01*
X125554819Y-103333332D02*
X125554819Y-102714285D01*
X125554819Y-102714285D02*
X125935771Y-103047618D01*
X125935771Y-103047618D02*
X125935771Y-102904761D01*
X125935771Y-102904761D02*
X125983390Y-102809523D01*
X125983390Y-102809523D02*
X126031009Y-102761904D01*
X126031009Y-102761904D02*
X126126247Y-102714285D01*
X126126247Y-102714285D02*
X126364342Y-102714285D01*
X126364342Y-102714285D02*
X126459580Y-102761904D01*
X126459580Y-102761904D02*
X126507200Y-102809523D01*
X126507200Y-102809523D02*
X126554819Y-102904761D01*
X126554819Y-102904761D02*
X126554819Y-103190475D01*
X126554819Y-103190475D02*
X126507200Y-103285713D01*
X126507200Y-103285713D02*
X126459580Y-103333332D01*
X129654819Y-103666666D02*
X129178628Y-103999999D01*
X129654819Y-104238094D02*
X128654819Y-104238094D01*
X128654819Y-104238094D02*
X128654819Y-103857142D01*
X128654819Y-103857142D02*
X128702438Y-103761904D01*
X128702438Y-103761904D02*
X128750057Y-103714285D01*
X128750057Y-103714285D02*
X128845295Y-103666666D01*
X128845295Y-103666666D02*
X128988152Y-103666666D01*
X128988152Y-103666666D02*
X129083390Y-103714285D01*
X129083390Y-103714285D02*
X129131009Y-103761904D01*
X129131009Y-103761904D02*
X129178628Y-103857142D01*
X129178628Y-103857142D02*
X129178628Y-104238094D01*
X128750057Y-103285713D02*
X128702438Y-103238094D01*
X128702438Y-103238094D02*
X128654819Y-103142856D01*
X128654819Y-103142856D02*
X128654819Y-102904761D01*
X128654819Y-102904761D02*
X128702438Y-102809523D01*
X128702438Y-102809523D02*
X128750057Y-102761904D01*
X128750057Y-102761904D02*
X128845295Y-102714285D01*
X128845295Y-102714285D02*
X128940533Y-102714285D01*
X128940533Y-102714285D02*
X129083390Y-102761904D01*
X129083390Y-102761904D02*
X129654819Y-103333332D01*
X129654819Y-103333332D02*
X129654819Y-102714285D01*
X145433333Y-105654819D02*
X145100000Y-105178628D01*
X144861905Y-105654819D02*
X144861905Y-104654819D01*
X144861905Y-104654819D02*
X145242857Y-104654819D01*
X145242857Y-104654819D02*
X145338095Y-104702438D01*
X145338095Y-104702438D02*
X145385714Y-104750057D01*
X145385714Y-104750057D02*
X145433333Y-104845295D01*
X145433333Y-104845295D02*
X145433333Y-104988152D01*
X145433333Y-104988152D02*
X145385714Y-105083390D01*
X145385714Y-105083390D02*
X145338095Y-105131009D01*
X145338095Y-105131009D02*
X145242857Y-105178628D01*
X145242857Y-105178628D02*
X144861905Y-105178628D01*
X146385714Y-105654819D02*
X145814286Y-105654819D01*
X146100000Y-105654819D02*
X146100000Y-104654819D01*
X146100000Y-104654819D02*
X146004762Y-104797676D01*
X146004762Y-104797676D02*
X145909524Y-104892914D01*
X145909524Y-104892914D02*
X145814286Y-104940533D01*
X153454819Y-86977142D02*
X153454819Y-86405714D01*
X154454819Y-86691428D02*
X153454819Y-86691428D01*
X154454819Y-86072380D02*
X153454819Y-86072380D01*
X153454819Y-86072380D02*
X153454819Y-85834285D01*
X153454819Y-85834285D02*
X153502438Y-85691428D01*
X153502438Y-85691428D02*
X153597676Y-85596190D01*
X153597676Y-85596190D02*
X153692914Y-85548571D01*
X153692914Y-85548571D02*
X153883390Y-85500952D01*
X153883390Y-85500952D02*
X154026247Y-85500952D01*
X154026247Y-85500952D02*
X154216723Y-85548571D01*
X154216723Y-85548571D02*
X154311961Y-85596190D01*
X154311961Y-85596190D02*
X154407200Y-85691428D01*
X154407200Y-85691428D02*
X154454819Y-85834285D01*
X154454819Y-85834285D02*
X154454819Y-86072380D01*
X154407200Y-85119999D02*
X154454819Y-84977142D01*
X154454819Y-84977142D02*
X154454819Y-84739047D01*
X154454819Y-84739047D02*
X154407200Y-84643809D01*
X154407200Y-84643809D02*
X154359580Y-84596190D01*
X154359580Y-84596190D02*
X154264342Y-84548571D01*
X154264342Y-84548571D02*
X154169104Y-84548571D01*
X154169104Y-84548571D02*
X154073866Y-84596190D01*
X154073866Y-84596190D02*
X154026247Y-84643809D01*
X154026247Y-84643809D02*
X153978628Y-84739047D01*
X153978628Y-84739047D02*
X153931009Y-84929523D01*
X153931009Y-84929523D02*
X153883390Y-85024761D01*
X153883390Y-85024761D02*
X153835771Y-85072380D01*
X153835771Y-85072380D02*
X153740533Y-85119999D01*
X153740533Y-85119999D02*
X153645295Y-85119999D01*
X153645295Y-85119999D02*
X153550057Y-85072380D01*
X153550057Y-85072380D02*
X153502438Y-85024761D01*
X153502438Y-85024761D02*
X153454819Y-84929523D01*
X153454819Y-84929523D02*
X153454819Y-84691428D01*
X153454819Y-84691428D02*
X153502438Y-84548571D01*
X154073866Y-84119999D02*
X154073866Y-83358095D01*
X154454819Y-82358095D02*
X154454819Y-82929523D01*
X154454819Y-82643809D02*
X153454819Y-82643809D01*
X153454819Y-82643809D02*
X153597676Y-82739047D01*
X153597676Y-82739047D02*
X153692914Y-82834285D01*
X153692914Y-82834285D02*
X153740533Y-82929523D01*
X153550057Y-81977142D02*
X153502438Y-81929523D01*
X153502438Y-81929523D02*
X153454819Y-81834285D01*
X153454819Y-81834285D02*
X153454819Y-81596190D01*
X153454819Y-81596190D02*
X153502438Y-81500952D01*
X153502438Y-81500952D02*
X153550057Y-81453333D01*
X153550057Y-81453333D02*
X153645295Y-81405714D01*
X153645295Y-81405714D02*
X153740533Y-81405714D01*
X153740533Y-81405714D02*
X153883390Y-81453333D01*
X153883390Y-81453333D02*
X154454819Y-82024761D01*
X154454819Y-82024761D02*
X154454819Y-81405714D01*
X153454819Y-80786666D02*
X153454819Y-80691428D01*
X153454819Y-80691428D02*
X153502438Y-80596190D01*
X153502438Y-80596190D02*
X153550057Y-80548571D01*
X153550057Y-80548571D02*
X153645295Y-80500952D01*
X153645295Y-80500952D02*
X153835771Y-80453333D01*
X153835771Y-80453333D02*
X154073866Y-80453333D01*
X154073866Y-80453333D02*
X154264342Y-80500952D01*
X154264342Y-80500952D02*
X154359580Y-80548571D01*
X154359580Y-80548571D02*
X154407200Y-80596190D01*
X154407200Y-80596190D02*
X154454819Y-80691428D01*
X154454819Y-80691428D02*
X154454819Y-80786666D01*
X154454819Y-80786666D02*
X154407200Y-80881904D01*
X154407200Y-80881904D02*
X154359580Y-80929523D01*
X154359580Y-80929523D02*
X154264342Y-80977142D01*
X154264342Y-80977142D02*
X154073866Y-81024761D01*
X154073866Y-81024761D02*
X153835771Y-81024761D01*
X153835771Y-81024761D02*
X153645295Y-80977142D01*
X153645295Y-80977142D02*
X153550057Y-80929523D01*
X153550057Y-80929523D02*
X153502438Y-80881904D01*
X153502438Y-80881904D02*
X153454819Y-80786666D01*
X153550057Y-80072380D02*
X153502438Y-80024761D01*
X153502438Y-80024761D02*
X153454819Y-79929523D01*
X153454819Y-79929523D02*
X153454819Y-79691428D01*
X153454819Y-79691428D02*
X153502438Y-79596190D01*
X153502438Y-79596190D02*
X153550057Y-79548571D01*
X153550057Y-79548571D02*
X153645295Y-79500952D01*
X153645295Y-79500952D02*
X153740533Y-79500952D01*
X153740533Y-79500952D02*
X153883390Y-79548571D01*
X153883390Y-79548571D02*
X154454819Y-80119999D01*
X154454819Y-80119999D02*
X154454819Y-79500952D01*
X153454819Y-79167618D02*
X154454819Y-78929523D01*
X154454819Y-78929523D02*
X153740533Y-78739047D01*
X153740533Y-78739047D02*
X154454819Y-78548571D01*
X154454819Y-78548571D02*
X153454819Y-78310476D01*
X147954819Y-81558094D02*
X146954819Y-81558094D01*
X147954819Y-80986666D02*
X147383390Y-81415237D01*
X146954819Y-80986666D02*
X147526247Y-81558094D01*
X147954819Y-80034285D02*
X147954819Y-80605713D01*
X147954819Y-80319999D02*
X146954819Y-80319999D01*
X146954819Y-80319999D02*
X147097676Y-80415237D01*
X147097676Y-80415237D02*
X147192914Y-80510475D01*
X147192914Y-80510475D02*
X147240533Y-80605713D01*
X131354819Y-116366666D02*
X130878628Y-116699999D01*
X131354819Y-116938094D02*
X130354819Y-116938094D01*
X130354819Y-116938094D02*
X130354819Y-116557142D01*
X130354819Y-116557142D02*
X130402438Y-116461904D01*
X130402438Y-116461904D02*
X130450057Y-116414285D01*
X130450057Y-116414285D02*
X130545295Y-116366666D01*
X130545295Y-116366666D02*
X130688152Y-116366666D01*
X130688152Y-116366666D02*
X130783390Y-116414285D01*
X130783390Y-116414285D02*
X130831009Y-116461904D01*
X130831009Y-116461904D02*
X130878628Y-116557142D01*
X130878628Y-116557142D02*
X130878628Y-116938094D01*
X130688152Y-115509523D02*
X131354819Y-115509523D01*
X130307200Y-115747618D02*
X131021485Y-115985713D01*
X131021485Y-115985713D02*
X131021485Y-115366666D01*
X134242857Y-108854819D02*
X134814285Y-108854819D01*
X134528571Y-109854819D02*
X134528571Y-108854819D01*
X135623809Y-109854819D02*
X135147619Y-109854819D01*
X135147619Y-109854819D02*
X135147619Y-108854819D01*
X136004762Y-109854819D02*
X136195238Y-109854819D01*
X136195238Y-109854819D02*
X136290476Y-109807200D01*
X136290476Y-109807200D02*
X136338095Y-109759580D01*
X136338095Y-109759580D02*
X136433333Y-109616723D01*
X136433333Y-109616723D02*
X136480952Y-109426247D01*
X136480952Y-109426247D02*
X136480952Y-109045295D01*
X136480952Y-109045295D02*
X136433333Y-108950057D01*
X136433333Y-108950057D02*
X136385714Y-108902438D01*
X136385714Y-108902438D02*
X136290476Y-108854819D01*
X136290476Y-108854819D02*
X136100000Y-108854819D01*
X136100000Y-108854819D02*
X136004762Y-108902438D01*
X136004762Y-108902438D02*
X135957143Y-108950057D01*
X135957143Y-108950057D02*
X135909524Y-109045295D01*
X135909524Y-109045295D02*
X135909524Y-109283390D01*
X135909524Y-109283390D02*
X135957143Y-109378628D01*
X135957143Y-109378628D02*
X136004762Y-109426247D01*
X136004762Y-109426247D02*
X136100000Y-109473866D01*
X136100000Y-109473866D02*
X136290476Y-109473866D01*
X136290476Y-109473866D02*
X136385714Y-109426247D01*
X136385714Y-109426247D02*
X136433333Y-109378628D01*
X136433333Y-109378628D02*
X136480952Y-109283390D01*
X136814286Y-108854819D02*
X137480952Y-108854819D01*
X137480952Y-108854819D02*
X137052381Y-109854819D01*
X137814286Y-108950057D02*
X137861905Y-108902438D01*
X137861905Y-108902438D02*
X137957143Y-108854819D01*
X137957143Y-108854819D02*
X138195238Y-108854819D01*
X138195238Y-108854819D02*
X138290476Y-108902438D01*
X138290476Y-108902438D02*
X138338095Y-108950057D01*
X138338095Y-108950057D02*
X138385714Y-109045295D01*
X138385714Y-109045295D02*
X138385714Y-109140533D01*
X138385714Y-109140533D02*
X138338095Y-109283390D01*
X138338095Y-109283390D02*
X137766667Y-109854819D01*
X137766667Y-109854819D02*
X138385714Y-109854819D01*
X138814286Y-109854819D02*
X138814286Y-108854819D01*
X139290476Y-109854819D02*
X139290476Y-108854819D01*
X139290476Y-108854819D02*
X139528571Y-108854819D01*
X139528571Y-108854819D02*
X139671428Y-108902438D01*
X139671428Y-108902438D02*
X139766666Y-108997676D01*
X139766666Y-108997676D02*
X139814285Y-109092914D01*
X139814285Y-109092914D02*
X139861904Y-109283390D01*
X139861904Y-109283390D02*
X139861904Y-109426247D01*
X139861904Y-109426247D02*
X139814285Y-109616723D01*
X139814285Y-109616723D02*
X139766666Y-109711961D01*
X139766666Y-109711961D02*
X139671428Y-109807200D01*
X139671428Y-109807200D02*
X139528571Y-109854819D01*
X139528571Y-109854819D02*
X139290476Y-109854819D01*
X133618400Y-110143019D02*
X133618400Y-110381114D01*
X133380305Y-110285876D02*
X133618400Y-110381114D01*
X133618400Y-110381114D02*
X133856495Y-110285876D01*
X133475543Y-110571590D02*
X133618400Y-110381114D01*
X133618400Y-110381114D02*
X133761257Y-110571590D01*
X133618400Y-110143019D02*
X133618400Y-110381114D01*
X133380305Y-110285876D02*
X133618400Y-110381114D01*
X133618400Y-110381114D02*
X133856495Y-110285876D01*
X133475543Y-110571590D02*
X133618400Y-110381114D01*
X133618400Y-110381114D02*
X133761257Y-110571590D01*
X135574295Y-113749819D02*
X135574295Y-114559342D01*
X135574295Y-114559342D02*
X135621914Y-114654580D01*
X135621914Y-114654580D02*
X135669533Y-114702200D01*
X135669533Y-114702200D02*
X135764771Y-114749819D01*
X135764771Y-114749819D02*
X135955247Y-114749819D01*
X135955247Y-114749819D02*
X136050485Y-114702200D01*
X136050485Y-114702200D02*
X136098104Y-114654580D01*
X136098104Y-114654580D02*
X136145723Y-114559342D01*
X136145723Y-114559342D02*
X136145723Y-113749819D01*
X137145723Y-114749819D02*
X136574295Y-114749819D01*
X136860009Y-114749819D02*
X136860009Y-113749819D01*
X136860009Y-113749819D02*
X136764771Y-113892676D01*
X136764771Y-113892676D02*
X136669533Y-113987914D01*
X136669533Y-113987914D02*
X136574295Y-114035533D01*
X122454819Y-76773333D02*
X123169104Y-76773333D01*
X123169104Y-76773333D02*
X123311961Y-76820952D01*
X123311961Y-76820952D02*
X123407200Y-76916190D01*
X123407200Y-76916190D02*
X123454819Y-77059047D01*
X123454819Y-77059047D02*
X123454819Y-77154285D01*
X122454819Y-76392380D02*
X122454819Y-75773333D01*
X122454819Y-75773333D02*
X122835771Y-76106666D01*
X122835771Y-76106666D02*
X122835771Y-75963809D01*
X122835771Y-75963809D02*
X122883390Y-75868571D01*
X122883390Y-75868571D02*
X122931009Y-75820952D01*
X122931009Y-75820952D02*
X123026247Y-75773333D01*
X123026247Y-75773333D02*
X123264342Y-75773333D01*
X123264342Y-75773333D02*
X123359580Y-75820952D01*
X123359580Y-75820952D02*
X123407200Y-75868571D01*
X123407200Y-75868571D02*
X123454819Y-75963809D01*
X123454819Y-75963809D02*
X123454819Y-76249523D01*
X123454819Y-76249523D02*
X123407200Y-76344761D01*
X123407200Y-76344761D02*
X123359580Y-76392380D01*
X142159580Y-113816666D02*
X142207200Y-113864285D01*
X142207200Y-113864285D02*
X142254819Y-114007142D01*
X142254819Y-114007142D02*
X142254819Y-114102380D01*
X142254819Y-114102380D02*
X142207200Y-114245237D01*
X142207200Y-114245237D02*
X142111961Y-114340475D01*
X142111961Y-114340475D02*
X142016723Y-114388094D01*
X142016723Y-114388094D02*
X141826247Y-114435713D01*
X141826247Y-114435713D02*
X141683390Y-114435713D01*
X141683390Y-114435713D02*
X141492914Y-114388094D01*
X141492914Y-114388094D02*
X141397676Y-114340475D01*
X141397676Y-114340475D02*
X141302438Y-114245237D01*
X141302438Y-114245237D02*
X141254819Y-114102380D01*
X141254819Y-114102380D02*
X141254819Y-114007142D01*
X141254819Y-114007142D02*
X141302438Y-113864285D01*
X141302438Y-113864285D02*
X141350057Y-113816666D01*
X141350057Y-113435713D02*
X141302438Y-113388094D01*
X141302438Y-113388094D02*
X141254819Y-113292856D01*
X141254819Y-113292856D02*
X141254819Y-113054761D01*
X141254819Y-113054761D02*
X141302438Y-112959523D01*
X141302438Y-112959523D02*
X141350057Y-112911904D01*
X141350057Y-112911904D02*
X141445295Y-112864285D01*
X141445295Y-112864285D02*
X141540533Y-112864285D01*
X141540533Y-112864285D02*
X141683390Y-112911904D01*
X141683390Y-112911904D02*
X142254819Y-113483332D01*
X142254819Y-113483332D02*
X142254819Y-112864285D01*
X123359580Y-101566666D02*
X123407200Y-101614285D01*
X123407200Y-101614285D02*
X123454819Y-101757142D01*
X123454819Y-101757142D02*
X123454819Y-101852380D01*
X123454819Y-101852380D02*
X123407200Y-101995237D01*
X123407200Y-101995237D02*
X123311961Y-102090475D01*
X123311961Y-102090475D02*
X123216723Y-102138094D01*
X123216723Y-102138094D02*
X123026247Y-102185713D01*
X123026247Y-102185713D02*
X122883390Y-102185713D01*
X122883390Y-102185713D02*
X122692914Y-102138094D01*
X122692914Y-102138094D02*
X122597676Y-102090475D01*
X122597676Y-102090475D02*
X122502438Y-101995237D01*
X122502438Y-101995237D02*
X122454819Y-101852380D01*
X122454819Y-101852380D02*
X122454819Y-101757142D01*
X122454819Y-101757142D02*
X122502438Y-101614285D01*
X122502438Y-101614285D02*
X122550057Y-101566666D01*
X123454819Y-100614285D02*
X123454819Y-101185713D01*
X123454819Y-100899999D02*
X122454819Y-100899999D01*
X122454819Y-100899999D02*
X122597676Y-100995237D01*
X122597676Y-100995237D02*
X122692914Y-101090475D01*
X122692914Y-101090475D02*
X122740533Y-101185713D01*
X149274761Y-97850057D02*
X149179523Y-97802438D01*
X149179523Y-97802438D02*
X149084285Y-97707200D01*
X149084285Y-97707200D02*
X148941428Y-97564342D01*
X148941428Y-97564342D02*
X148846190Y-97516723D01*
X148846190Y-97516723D02*
X148750952Y-97516723D01*
X148798571Y-97754819D02*
X148703333Y-97707200D01*
X148703333Y-97707200D02*
X148608095Y-97611961D01*
X148608095Y-97611961D02*
X148560476Y-97421485D01*
X148560476Y-97421485D02*
X148560476Y-97088152D01*
X148560476Y-97088152D02*
X148608095Y-96897676D01*
X148608095Y-96897676D02*
X148703333Y-96802438D01*
X148703333Y-96802438D02*
X148798571Y-96754819D01*
X148798571Y-96754819D02*
X148989047Y-96754819D01*
X148989047Y-96754819D02*
X149084285Y-96802438D01*
X149084285Y-96802438D02*
X149179523Y-96897676D01*
X149179523Y-96897676D02*
X149227142Y-97088152D01*
X149227142Y-97088152D02*
X149227142Y-97421485D01*
X149227142Y-97421485D02*
X149179523Y-97611961D01*
X149179523Y-97611961D02*
X149084285Y-97707200D01*
X149084285Y-97707200D02*
X148989047Y-97754819D01*
X148989047Y-97754819D02*
X148798571Y-97754819D01*
X149608095Y-96850057D02*
X149655714Y-96802438D01*
X149655714Y-96802438D02*
X149750952Y-96754819D01*
X149750952Y-96754819D02*
X149989047Y-96754819D01*
X149989047Y-96754819D02*
X150084285Y-96802438D01*
X150084285Y-96802438D02*
X150131904Y-96850057D01*
X150131904Y-96850057D02*
X150179523Y-96945295D01*
X150179523Y-96945295D02*
X150179523Y-97040533D01*
X150179523Y-97040533D02*
X150131904Y-97183390D01*
X150131904Y-97183390D02*
X149560476Y-97754819D01*
X149560476Y-97754819D02*
X150179523Y-97754819D01*
X122280319Y-90728333D02*
X122994604Y-90728333D01*
X122994604Y-90728333D02*
X123137461Y-90775952D01*
X123137461Y-90775952D02*
X123232700Y-90871190D01*
X123232700Y-90871190D02*
X123280319Y-91014047D01*
X123280319Y-91014047D02*
X123280319Y-91109285D01*
X122375557Y-90299761D02*
X122327938Y-90252142D01*
X122327938Y-90252142D02*
X122280319Y-90156904D01*
X122280319Y-90156904D02*
X122280319Y-89918809D01*
X122280319Y-89918809D02*
X122327938Y-89823571D01*
X122327938Y-89823571D02*
X122375557Y-89775952D01*
X122375557Y-89775952D02*
X122470795Y-89728333D01*
X122470795Y-89728333D02*
X122566033Y-89728333D01*
X122566033Y-89728333D02*
X122708890Y-89775952D01*
X122708890Y-89775952D02*
X123280319Y-90347380D01*
X123280319Y-90347380D02*
X123280319Y-89728333D01*
%TO.C,R7*%
D11*
X152510000Y-108300000D02*
X151850000Y-108300000D01*
X144890000Y-108300000D02*
X145550000Y-108300000D01*
X145550000Y-107050000D02*
X151850000Y-107050000D01*
X151850000Y-109550000D01*
X145550000Y-109550000D01*
X145550000Y-107050000D01*
%TO.C,D1*%
X146700000Y-114720000D02*
X146700000Y-117200000D01*
X146700000Y-124880000D02*
X146700000Y-122400000D01*
X148050000Y-117880000D02*
X145350000Y-117880000D01*
X148050000Y-117980000D02*
X145350000Y-117980000D01*
X148050000Y-118080000D02*
X145350000Y-118080000D01*
X145350000Y-117200000D02*
X148050000Y-117200000D01*
X148050000Y-122400000D01*
X145350000Y-122400000D01*
X145350000Y-117200000D01*
%TO.C,R6*%
X133590000Y-118800000D02*
X134250000Y-118800000D01*
X141210000Y-118800000D02*
X140550000Y-118800000D01*
X134250000Y-117550000D02*
X140550000Y-117550000D01*
X140550000Y-120050000D01*
X134250000Y-120050000D01*
X134250000Y-117550000D01*
%TO.C,Q1*%
X145400000Y-95550000D02*
X141900000Y-95550000D01*
X143630000Y-99780000D02*
G75*
G02*
X141876375Y-95546375I0J2480000D01*
G01*
X145383625Y-95546375D02*
G75*
G02*
X143630000Y-99780000I-1753625J-1753625D01*
G01*
%TO.C,D2*%
X145560000Y-93900000D02*
X146600000Y-93900000D01*
X147225000Y-92900000D02*
X147225000Y-94900000D01*
X147325000Y-92900000D02*
X147325000Y-94900000D01*
X147400000Y-92900000D02*
X147400000Y-94900000D01*
X150640000Y-93900000D02*
X149600000Y-93900000D01*
X146600000Y-92900000D02*
X149600000Y-92900000D01*
X149600000Y-94900000D01*
X146600000Y-94900000D01*
X146600000Y-92900000D01*
%TO.C,J1*%
X151930000Y-111495000D02*
X152565000Y-110860000D01*
X151930000Y-121020000D02*
X151930000Y-111495000D01*
X152565000Y-110860000D02*
X154470000Y-110860000D01*
X154470000Y-110860000D02*
X154470000Y-121020000D01*
X154470000Y-121020000D02*
X151930000Y-121020000D01*
%TO.C,R5*%
X141790000Y-102100000D02*
X142450000Y-102100000D01*
X149410000Y-102100000D02*
X148750000Y-102100000D01*
X142450000Y-100850000D02*
X148750000Y-100850000D01*
X148750000Y-103350000D01*
X142450000Y-103350000D01*
X142450000Y-100850000D01*
%TO.C,R3*%
X126100000Y-99690000D02*
X126100000Y-100350000D01*
X126100000Y-107310000D02*
X126100000Y-106650000D01*
X124850000Y-100350000D02*
X127350000Y-100350000D01*
X127350000Y-106650000D01*
X124850000Y-106650000D01*
X124850000Y-100350000D01*
%TO.C,R2*%
X129200000Y-99690000D02*
X129200000Y-100350000D01*
X129200000Y-107310000D02*
X129200000Y-106650000D01*
X127950000Y-100350000D02*
X130450000Y-100350000D01*
X130450000Y-106650000D01*
X127950000Y-106650000D01*
X127950000Y-100350000D01*
%TO.C,R1*%
X141790000Y-105200000D02*
X142450000Y-105200000D01*
X149410000Y-105200000D02*
X148750000Y-105200000D01*
X142450000Y-103950000D02*
X148750000Y-103950000D01*
X148750000Y-106450000D01*
X142450000Y-106450000D01*
X142450000Y-103950000D01*
%TO.C,K1*%
X142740000Y-71980000D02*
X152840000Y-71980000D01*
X142740000Y-92280000D02*
X142740000Y-71980000D01*
X149300000Y-91020000D02*
X146400000Y-91020000D01*
X151360000Y-92280000D02*
X142740000Y-92280000D01*
X152840000Y-71980000D02*
X152840000Y-90760000D01*
X152840000Y-90760000D02*
X151360000Y-92280000D01*
%TO.C,R4*%
X130900000Y-112390000D02*
X130900000Y-113050000D01*
X130900000Y-120010000D02*
X130900000Y-119350000D01*
X129650000Y-113050000D02*
X132150000Y-113050000D01*
X132150000Y-119350000D01*
X129650000Y-119350000D01*
X129650000Y-113050000D01*
%TO.C,U1*%
D12*
X133237400Y-112136000D02*
X133237400Y-112644000D01*
X133237400Y-112644000D02*
X134342300Y-112644000D01*
X133237400Y-113406000D02*
X133237400Y-113914000D01*
X133237400Y-113914000D02*
X134342300Y-113914000D01*
X133237400Y-114676000D02*
X133237400Y-115184000D01*
X133237400Y-115184000D02*
X134342300Y-115184000D01*
X133237400Y-115946000D02*
X133237400Y-116454000D01*
X133237400Y-116454000D02*
X134342300Y-116454000D01*
X134342300Y-111793100D02*
X134342300Y-116796900D01*
X134342300Y-112136000D02*
X133237400Y-112136000D01*
X134342300Y-112644000D02*
X134342300Y-112136000D01*
X134342300Y-113406000D02*
X133237400Y-113406000D01*
X134342300Y-113914000D02*
X134342300Y-113406000D01*
X134342300Y-114676000D02*
X133237400Y-114676000D01*
X134342300Y-115184000D02*
X134342300Y-114676000D01*
X134342300Y-115946000D02*
X133237400Y-115946000D01*
X134342300Y-116454000D02*
X134342300Y-115946000D01*
X134342300Y-116796900D02*
X138330100Y-116796900D01*
X138330100Y-111793100D02*
X134342300Y-111793100D01*
X138330100Y-112136000D02*
X138330100Y-112644000D01*
X138330100Y-112644000D02*
X139435000Y-112644000D01*
X138330100Y-113406000D02*
X138330100Y-113914000D01*
X138330100Y-113914000D02*
X139435000Y-113914000D01*
X138330100Y-114676000D02*
X138330100Y-115184000D01*
X138330100Y-115184000D02*
X139435000Y-115184000D01*
X138330100Y-115946000D02*
X138330100Y-116454000D01*
X138330100Y-116454000D02*
X139435000Y-116454000D01*
X138330100Y-116796900D02*
X138330100Y-111793100D01*
X139435000Y-112136000D02*
X138330100Y-112136000D01*
X139435000Y-112644000D02*
X139435000Y-112136000D01*
X139435000Y-113406000D02*
X138330100Y-113406000D01*
X139435000Y-113914000D02*
X139435000Y-113406000D01*
X139435000Y-114676000D02*
X138330100Y-114676000D01*
X139435000Y-115184000D02*
X139435000Y-114676000D01*
X139435000Y-115946000D02*
X138330100Y-115946000D01*
X139435000Y-116454000D02*
X139435000Y-115946000D01*
X136641000Y-111793100D02*
G75*
G02*
X136031400Y-111793100I-304800J0D01*
G01*
%TO.C,J3*%
D11*
X121600000Y-71860000D02*
X122100000Y-71360000D01*
X121600000Y-81520000D02*
X121600000Y-71860000D01*
X122100000Y-71360000D02*
X122100000Y-81520000D01*
X122100000Y-71360000D02*
X131400000Y-71360000D01*
X123600000Y-71360000D02*
X123600000Y-81520000D01*
X127155000Y-75038000D02*
X125062000Y-72945000D01*
X127155000Y-80118000D02*
X125062000Y-78025000D01*
X127338000Y-74855000D02*
X125245000Y-72762000D01*
X127338000Y-79935000D02*
X125245000Y-77842000D01*
X128500000Y-71360000D02*
X128500000Y-81520000D01*
X131400000Y-71360000D02*
X131400000Y-81520000D01*
X131400000Y-81520000D02*
X121600000Y-81520000D01*
X127700000Y-73900000D02*
G75*
G02*
X124700000Y-73900000I-1500000J0D01*
G01*
X124700000Y-73900000D02*
G75*
G02*
X127700000Y-73900000I1500000J0D01*
G01*
X127700000Y-78980000D02*
G75*
G02*
X124700000Y-78980000I-1500000J0D01*
G01*
X124700000Y-78980000D02*
G75*
G02*
X127700000Y-78980000I1500000J0D01*
G01*
%TO.C,C2*%
X140550000Y-111150000D02*
X143050000Y-111150000D01*
X143050000Y-116150000D01*
X140550000Y-116150000D01*
X140550000Y-111150000D01*
%TO.C,C1*%
X121750000Y-98900000D02*
X124250000Y-98900000D01*
X124250000Y-103900000D01*
X121750000Y-103900000D01*
X121750000Y-98900000D01*
%TO.C,Q2*%
X151140000Y-95550000D02*
X147640000Y-95550000D01*
X149370000Y-99780000D02*
G75*
G02*
X147616375Y-95546375I0J2480000D01*
G01*
X151123625Y-95546375D02*
G75*
G02*
X149370000Y-99780000I-1753625J-1753625D01*
G01*
%TO.C,J2*%
X121527500Y-98015000D02*
X121527500Y-82775000D01*
X121555500Y-82775000D02*
X122027500Y-82775000D01*
X122027500Y-82775000D02*
X122027500Y-92935000D01*
X122027500Y-82775000D02*
X131327500Y-82775000D01*
X123527500Y-82775000D02*
X123527500Y-92935000D01*
X127058500Y-96648500D02*
X124965500Y-94555500D01*
X127082500Y-86453000D02*
X124989500Y-84360000D01*
X127082500Y-91533000D02*
X124989500Y-89440000D01*
X127241500Y-96465500D02*
X125148500Y-94372500D01*
X127265500Y-86270000D02*
X125172500Y-84177000D01*
X127265500Y-91350000D02*
X125172500Y-89257000D01*
X128427500Y-82775000D02*
X128427500Y-92935000D01*
X131327500Y-82775000D02*
X131327500Y-98015000D01*
X131327500Y-98015000D02*
X121527500Y-98015000D01*
X127603500Y-95510500D02*
G75*
G02*
X124603500Y-95510500I-1500000J0D01*
G01*
X124603500Y-95510500D02*
G75*
G02*
X127603500Y-95510500I1500000J0D01*
G01*
X127627500Y-85315000D02*
G75*
G02*
X124627500Y-85315000I-1500000J0D01*
G01*
X124627500Y-85315000D02*
G75*
G02*
X127627500Y-85315000I1500000J0D01*
G01*
X127627500Y-90395000D02*
G75*
G02*
X124627500Y-90395000I-1500000J0D01*
G01*
X124627500Y-90395000D02*
G75*
G02*
X127627500Y-90395000I1500000J0D01*
G01*
%TD*%
D13*
X120000000Y-70000000D02*
X155000000Y-70000000D01*
X155000000Y-130000000D01*
X120000000Y-130000000D01*
X120000000Y-70000000D01*
M02*
