%TF.GenerationSoftware,KiCad,Pcbnew,10.0.3*%
%TF.CreationDate,2026-09-10T10:51:16-03:00*%
%TF.ProjectId,Placa de Corte TX,506c6163-6120-4646-9520-436f72746520,rev?*%
%TF.SameCoordinates,Original*%
%TF.FileFunction,Legend,Top*%
%TF.FilePolarity,Positive*%
%FSLAX46Y46*%
G04 Gerber Fmt 4.6, Leading zero omitted, Abs format (unit mm)*
G04 Created by KiCad (PCBNEW 10.0.3) date 2026-09-10 10:51:16*
%MOMM*%
%LPD*%
G01*
G04 APERTURE LIST*
%ADD10C,0.150000*%
%ADD11C,0.120000*%
%ADD12C,0.152400*%
%TA.AperFunction,Profile*%
%ADD13C,1.000000*%
%TD*%
G04 APERTURE END LIST*
D10*
X137033333Y-121354819D02*
X136700000Y-120878628D01*
X136461905Y-121354819D02*
X136461905Y-120354819D01*
X136461905Y-120354819D02*
X136842857Y-120354819D01*
X136842857Y-120354819D02*
X136938095Y-120402438D01*
X136938095Y-120402438D02*
X136985714Y-120450057D01*
X136985714Y-120450057D02*
X137033333Y-120545295D01*
X137033333Y-120545295D02*
X137033333Y-120688152D01*
X137033333Y-120688152D02*
X136985714Y-120783390D01*
X136985714Y-120783390D02*
X136938095Y-120831009D01*
X136938095Y-120831009D02*
X136842857Y-120878628D01*
X136842857Y-120878628D02*
X136461905Y-120878628D01*
X137890476Y-120354819D02*
X137700000Y-120354819D01*
X137700000Y-120354819D02*
X137604762Y-120402438D01*
X137604762Y-120402438D02*
X137557143Y-120450057D01*
X137557143Y-120450057D02*
X137461905Y-120592914D01*
X137461905Y-120592914D02*
X137414286Y-120783390D01*
X137414286Y-120783390D02*
X137414286Y-121164342D01*
X137414286Y-121164342D02*
X137461905Y-121259580D01*
X137461905Y-121259580D02*
X137509524Y-121307200D01*
X137509524Y-121307200D02*
X137604762Y-121354819D01*
X137604762Y-121354819D02*
X137795238Y-121354819D01*
X137795238Y-121354819D02*
X137890476Y-121307200D01*
X137890476Y-121307200D02*
X137938095Y-121259580D01*
X137938095Y-121259580D02*
X137985714Y-121164342D01*
X137985714Y-121164342D02*
X137985714Y-120926247D01*
X137985714Y-120926247D02*
X137938095Y-120831009D01*
X137938095Y-120831009D02*
X137890476Y-120783390D01*
X137890476Y-120783390D02*
X137795238Y-120735771D01*
X137795238Y-120735771D02*
X137604762Y-120735771D01*
X137604762Y-120735771D02*
X137509524Y-120783390D01*
X137509524Y-120783390D02*
X137461905Y-120831009D01*
X137461905Y-120831009D02*
X137414286Y-120926247D01*
X151333333Y-105654819D02*
X151000000Y-105178628D01*
X150761905Y-105654819D02*
X150761905Y-104654819D01*
X150761905Y-104654819D02*
X151142857Y-104654819D01*
X151142857Y-104654819D02*
X151238095Y-104702438D01*
X151238095Y-104702438D02*
X151285714Y-104750057D01*
X151285714Y-104750057D02*
X151333333Y-104845295D01*
X151333333Y-104845295D02*
X151333333Y-104988152D01*
X151333333Y-104988152D02*
X151285714Y-105083390D01*
X151285714Y-105083390D02*
X151238095Y-105131009D01*
X151238095Y-105131009D02*
X151142857Y-105178628D01*
X151142857Y-105178628D02*
X150761905Y-105178628D01*
X152285714Y-105654819D02*
X151714286Y-105654819D01*
X152000000Y-105654819D02*
X152000000Y-104654819D01*
X152000000Y-104654819D02*
X151904762Y-104797676D01*
X151904762Y-104797676D02*
X151809524Y-104892914D01*
X151809524Y-104892914D02*
X151714286Y-104940533D01*
X132366666Y-83354819D02*
X132366666Y-84069104D01*
X132366666Y-84069104D02*
X132319047Y-84211961D01*
X132319047Y-84211961D02*
X132223809Y-84307200D01*
X132223809Y-84307200D02*
X132080952Y-84354819D01*
X132080952Y-84354819D02*
X131985714Y-84354819D01*
X132795238Y-83450057D02*
X132842857Y-83402438D01*
X132842857Y-83402438D02*
X132938095Y-83354819D01*
X132938095Y-83354819D02*
X133176190Y-83354819D01*
X133176190Y-83354819D02*
X133271428Y-83402438D01*
X133271428Y-83402438D02*
X133319047Y-83450057D01*
X133319047Y-83450057D02*
X133366666Y-83545295D01*
X133366666Y-83545295D02*
X133366666Y-83640533D01*
X133366666Y-83640533D02*
X133319047Y-83783390D01*
X133319047Y-83783390D02*
X132747619Y-84354819D01*
X132747619Y-84354819D02*
X133366666Y-84354819D01*
X152866666Y-109204819D02*
X152866666Y-109919104D01*
X152866666Y-109919104D02*
X152819047Y-110061961D01*
X152819047Y-110061961D02*
X152723809Y-110157200D01*
X152723809Y-110157200D02*
X152580952Y-110204819D01*
X152580952Y-110204819D02*
X152485714Y-110204819D01*
X153866666Y-110204819D02*
X153295238Y-110204819D01*
X153580952Y-110204819D02*
X153580952Y-109204819D01*
X153580952Y-109204819D02*
X153485714Y-109347676D01*
X153485714Y-109347676D02*
X153390476Y-109442914D01*
X153390476Y-109442914D02*
X153295238Y-109490533D01*
X144854819Y-125038094D02*
X143854819Y-125038094D01*
X143854819Y-125038094D02*
X143854819Y-124799999D01*
X143854819Y-124799999D02*
X143902438Y-124657142D01*
X143902438Y-124657142D02*
X143997676Y-124561904D01*
X143997676Y-124561904D02*
X144092914Y-124514285D01*
X144092914Y-124514285D02*
X144283390Y-124466666D01*
X144283390Y-124466666D02*
X144426247Y-124466666D01*
X144426247Y-124466666D02*
X144616723Y-124514285D01*
X144616723Y-124514285D02*
X144711961Y-124561904D01*
X144711961Y-124561904D02*
X144807200Y-124657142D01*
X144807200Y-124657142D02*
X144854819Y-124799999D01*
X144854819Y-124799999D02*
X144854819Y-125038094D01*
X144854819Y-123514285D02*
X144854819Y-124085713D01*
X144854819Y-123799999D02*
X143854819Y-123799999D01*
X143854819Y-123799999D02*
X143997676Y-123895237D01*
X143997676Y-123895237D02*
X144092914Y-123990475D01*
X144092914Y-123990475D02*
X144140533Y-124085713D01*
X142504761Y-95250057D02*
X142409523Y-95202438D01*
X142409523Y-95202438D02*
X142314285Y-95107200D01*
X142314285Y-95107200D02*
X142171428Y-94964342D01*
X142171428Y-94964342D02*
X142076190Y-94916723D01*
X142076190Y-94916723D02*
X141980952Y-94916723D01*
X142028571Y-95154819D02*
X141933333Y-95107200D01*
X141933333Y-95107200D02*
X141838095Y-95011961D01*
X141838095Y-95011961D02*
X141790476Y-94821485D01*
X141790476Y-94821485D02*
X141790476Y-94488152D01*
X141790476Y-94488152D02*
X141838095Y-94297676D01*
X141838095Y-94297676D02*
X141933333Y-94202438D01*
X141933333Y-94202438D02*
X142028571Y-94154819D01*
X142028571Y-94154819D02*
X142219047Y-94154819D01*
X142219047Y-94154819D02*
X142314285Y-94202438D01*
X142314285Y-94202438D02*
X142409523Y-94297676D01*
X142409523Y-94297676D02*
X142457142Y-94488152D01*
X142457142Y-94488152D02*
X142457142Y-94821485D01*
X142457142Y-94821485D02*
X142409523Y-95011961D01*
X142409523Y-95011961D02*
X142314285Y-95107200D01*
X142314285Y-95107200D02*
X142219047Y-95154819D01*
X142219047Y-95154819D02*
X142028571Y-95154819D01*
X143409523Y-95154819D02*
X142838095Y-95154819D01*
X143123809Y-95154819D02*
X143123809Y-94154819D01*
X143123809Y-94154819D02*
X143028571Y-94297676D01*
X143028571Y-94297676D02*
X142933333Y-94392914D01*
X142933333Y-94392914D02*
X142838095Y-94440533D01*
X151861905Y-94254819D02*
X151861905Y-93254819D01*
X151861905Y-93254819D02*
X152100000Y-93254819D01*
X152100000Y-93254819D02*
X152242857Y-93302438D01*
X152242857Y-93302438D02*
X152338095Y-93397676D01*
X152338095Y-93397676D02*
X152385714Y-93492914D01*
X152385714Y-93492914D02*
X152433333Y-93683390D01*
X152433333Y-93683390D02*
X152433333Y-93826247D01*
X152433333Y-93826247D02*
X152385714Y-94016723D01*
X152385714Y-94016723D02*
X152338095Y-94111961D01*
X152338095Y-94111961D02*
X152242857Y-94207200D01*
X152242857Y-94207200D02*
X152100000Y-94254819D01*
X152100000Y-94254819D02*
X151861905Y-94254819D01*
X152814286Y-93350057D02*
X152861905Y-93302438D01*
X152861905Y-93302438D02*
X152957143Y-93254819D01*
X152957143Y-93254819D02*
X153195238Y-93254819D01*
X153195238Y-93254819D02*
X153290476Y-93302438D01*
X153290476Y-93302438D02*
X153338095Y-93350057D01*
X153338095Y-93350057D02*
X153385714Y-93445295D01*
X153385714Y-93445295D02*
X153385714Y-93540533D01*
X153385714Y-93540533D02*
X153338095Y-93683390D01*
X153338095Y-93683390D02*
X152766667Y-94254819D01*
X152766667Y-94254819D02*
X153385714Y-94254819D01*
X151323333Y-102754819D02*
X150990000Y-102278628D01*
X150751905Y-102754819D02*
X150751905Y-101754819D01*
X150751905Y-101754819D02*
X151132857Y-101754819D01*
X151132857Y-101754819D02*
X151228095Y-101802438D01*
X151228095Y-101802438D02*
X151275714Y-101850057D01*
X151275714Y-101850057D02*
X151323333Y-101945295D01*
X151323333Y-101945295D02*
X151323333Y-102088152D01*
X151323333Y-102088152D02*
X151275714Y-102183390D01*
X151275714Y-102183390D02*
X151228095Y-102231009D01*
X151228095Y-102231009D02*
X151132857Y-102278628D01*
X151132857Y-102278628D02*
X150751905Y-102278628D01*
X152228095Y-101754819D02*
X151751905Y-101754819D01*
X151751905Y-101754819D02*
X151704286Y-102231009D01*
X151704286Y-102231009D02*
X151751905Y-102183390D01*
X151751905Y-102183390D02*
X151847143Y-102135771D01*
X151847143Y-102135771D02*
X152085238Y-102135771D01*
X152085238Y-102135771D02*
X152180476Y-102183390D01*
X152180476Y-102183390D02*
X152228095Y-102231009D01*
X152228095Y-102231009D02*
X152275714Y-102326247D01*
X152275714Y-102326247D02*
X152275714Y-102564342D01*
X152275714Y-102564342D02*
X152228095Y-102659580D01*
X152228095Y-102659580D02*
X152180476Y-102707200D01*
X152180476Y-102707200D02*
X152085238Y-102754819D01*
X152085238Y-102754819D02*
X151847143Y-102754819D01*
X151847143Y-102754819D02*
X151751905Y-102707200D01*
X151751905Y-102707200D02*
X151704286Y-102659580D01*
X124454819Y-107266666D02*
X123978628Y-107599999D01*
X124454819Y-107838094D02*
X123454819Y-107838094D01*
X123454819Y-107838094D02*
X123454819Y-107457142D01*
X123454819Y-107457142D02*
X123502438Y-107361904D01*
X123502438Y-107361904D02*
X123550057Y-107314285D01*
X123550057Y-107314285D02*
X123645295Y-107266666D01*
X123645295Y-107266666D02*
X123788152Y-107266666D01*
X123788152Y-107266666D02*
X123883390Y-107314285D01*
X123883390Y-107314285D02*
X123931009Y-107361904D01*
X123931009Y-107361904D02*
X123978628Y-107457142D01*
X123978628Y-107457142D02*
X123978628Y-107838094D01*
X123454819Y-106933332D02*
X123454819Y-106314285D01*
X123454819Y-106314285D02*
X123835771Y-106647618D01*
X123835771Y-106647618D02*
X123835771Y-106504761D01*
X123835771Y-106504761D02*
X123883390Y-106409523D01*
X123883390Y-106409523D02*
X123931009Y-106361904D01*
X123931009Y-106361904D02*
X124026247Y-106314285D01*
X124026247Y-106314285D02*
X124264342Y-106314285D01*
X124264342Y-106314285D02*
X124359580Y-106361904D01*
X124359580Y-106361904D02*
X124407200Y-106409523D01*
X124407200Y-106409523D02*
X124454819Y-106504761D01*
X124454819Y-106504761D02*
X124454819Y-106790475D01*
X124454819Y-106790475D02*
X124407200Y-106885713D01*
X124407200Y-106885713D02*
X124359580Y-106933332D01*
X131954819Y-107266666D02*
X131478628Y-107599999D01*
X131954819Y-107838094D02*
X130954819Y-107838094D01*
X130954819Y-107838094D02*
X130954819Y-107457142D01*
X130954819Y-107457142D02*
X131002438Y-107361904D01*
X131002438Y-107361904D02*
X131050057Y-107314285D01*
X131050057Y-107314285D02*
X131145295Y-107266666D01*
X131145295Y-107266666D02*
X131288152Y-107266666D01*
X131288152Y-107266666D02*
X131383390Y-107314285D01*
X131383390Y-107314285D02*
X131431009Y-107361904D01*
X131431009Y-107361904D02*
X131478628Y-107457142D01*
X131478628Y-107457142D02*
X131478628Y-107838094D01*
X131050057Y-106885713D02*
X131002438Y-106838094D01*
X131002438Y-106838094D02*
X130954819Y-106742856D01*
X130954819Y-106742856D02*
X130954819Y-106504761D01*
X130954819Y-106504761D02*
X131002438Y-106409523D01*
X131002438Y-106409523D02*
X131050057Y-106361904D01*
X131050057Y-106361904D02*
X131145295Y-106314285D01*
X131145295Y-106314285D02*
X131240533Y-106314285D01*
X131240533Y-106314285D02*
X131383390Y-106361904D01*
X131383390Y-106361904D02*
X131954819Y-106933332D01*
X131954819Y-106933332D02*
X131954819Y-106314285D01*
X142154819Y-82458094D02*
X141154819Y-82458094D01*
X142154819Y-81886666D02*
X141583390Y-82315237D01*
X141154819Y-81886666D02*
X141726247Y-82458094D01*
X142154819Y-80934285D02*
X142154819Y-81505713D01*
X142154819Y-81219999D02*
X141154819Y-81219999D01*
X141154819Y-81219999D02*
X141297676Y-81315237D01*
X141297676Y-81315237D02*
X141392914Y-81410475D01*
X141392914Y-81410475D02*
X141440533Y-81505713D01*
X129454819Y-115966666D02*
X128978628Y-116299999D01*
X129454819Y-116538094D02*
X128454819Y-116538094D01*
X128454819Y-116538094D02*
X128454819Y-116157142D01*
X128454819Y-116157142D02*
X128502438Y-116061904D01*
X128502438Y-116061904D02*
X128550057Y-116014285D01*
X128550057Y-116014285D02*
X128645295Y-115966666D01*
X128645295Y-115966666D02*
X128788152Y-115966666D01*
X128788152Y-115966666D02*
X128883390Y-116014285D01*
X128883390Y-116014285D02*
X128931009Y-116061904D01*
X128931009Y-116061904D02*
X128978628Y-116157142D01*
X128978628Y-116157142D02*
X128978628Y-116538094D01*
X128788152Y-115109523D02*
X129454819Y-115109523D01*
X128407200Y-115347618D02*
X129121485Y-115585713D01*
X129121485Y-115585713D02*
X129121485Y-114966666D01*
X135499695Y-110167719D02*
X135499695Y-110977242D01*
X135499695Y-110977242D02*
X135547314Y-111072480D01*
X135547314Y-111072480D02*
X135594933Y-111120100D01*
X135594933Y-111120100D02*
X135690171Y-111167719D01*
X135690171Y-111167719D02*
X135880647Y-111167719D01*
X135880647Y-111167719D02*
X135975885Y-111120100D01*
X135975885Y-111120100D02*
X136023504Y-111072480D01*
X136023504Y-111072480D02*
X136071123Y-110977242D01*
X136071123Y-110977242D02*
X136071123Y-110167719D01*
X137071123Y-111167719D02*
X136499695Y-111167719D01*
X136785409Y-111167719D02*
X136785409Y-110167719D01*
X136785409Y-110167719D02*
X136690171Y-110310576D01*
X136690171Y-110310576D02*
X136594933Y-110405814D01*
X136594933Y-110405814D02*
X136499695Y-110453433D01*
X133618400Y-110143019D02*
X133618400Y-110381114D01*
X133380305Y-110285876D02*
X133618400Y-110381114D01*
X133618400Y-110381114D02*
X133856495Y-110285876D01*
X133475543Y-110571590D02*
X133618400Y-110381114D01*
X133618400Y-110381114D02*
X133761257Y-110571590D01*
X133618400Y-110143019D02*
X133618400Y-110381114D01*
X133380305Y-110285876D02*
X133618400Y-110381114D01*
X133618400Y-110381114D02*
X133856495Y-110285876D01*
X133475543Y-110571590D02*
X133618400Y-110381114D01*
X133618400Y-110381114D02*
X133761257Y-110571590D01*
X132566666Y-71154819D02*
X132566666Y-71869104D01*
X132566666Y-71869104D02*
X132519047Y-72011961D01*
X132519047Y-72011961D02*
X132423809Y-72107200D01*
X132423809Y-72107200D02*
X132280952Y-72154819D01*
X132280952Y-72154819D02*
X132185714Y-72154819D01*
X132947619Y-71154819D02*
X133566666Y-71154819D01*
X133566666Y-71154819D02*
X133233333Y-71535771D01*
X133233333Y-71535771D02*
X133376190Y-71535771D01*
X133376190Y-71535771D02*
X133471428Y-71583390D01*
X133471428Y-71583390D02*
X133519047Y-71631009D01*
X133519047Y-71631009D02*
X133566666Y-71726247D01*
X133566666Y-71726247D02*
X133566666Y-71964342D01*
X133566666Y-71964342D02*
X133519047Y-72059580D01*
X133519047Y-72059580D02*
X133471428Y-72107200D01*
X133471428Y-72107200D02*
X133376190Y-72154819D01*
X133376190Y-72154819D02*
X133090476Y-72154819D01*
X133090476Y-72154819D02*
X132995238Y-72107200D01*
X132995238Y-72107200D02*
X132947619Y-72059580D01*
X141483333Y-110759580D02*
X141435714Y-110807200D01*
X141435714Y-110807200D02*
X141292857Y-110854819D01*
X141292857Y-110854819D02*
X141197619Y-110854819D01*
X141197619Y-110854819D02*
X141054762Y-110807200D01*
X141054762Y-110807200D02*
X140959524Y-110711961D01*
X140959524Y-110711961D02*
X140911905Y-110616723D01*
X140911905Y-110616723D02*
X140864286Y-110426247D01*
X140864286Y-110426247D02*
X140864286Y-110283390D01*
X140864286Y-110283390D02*
X140911905Y-110092914D01*
X140911905Y-110092914D02*
X140959524Y-109997676D01*
X140959524Y-109997676D02*
X141054762Y-109902438D01*
X141054762Y-109902438D02*
X141197619Y-109854819D01*
X141197619Y-109854819D02*
X141292857Y-109854819D01*
X141292857Y-109854819D02*
X141435714Y-109902438D01*
X141435714Y-109902438D02*
X141483333Y-109950057D01*
X141864286Y-109950057D02*
X141911905Y-109902438D01*
X141911905Y-109902438D02*
X142007143Y-109854819D01*
X142007143Y-109854819D02*
X142245238Y-109854819D01*
X142245238Y-109854819D02*
X142340476Y-109902438D01*
X142340476Y-109902438D02*
X142388095Y-109950057D01*
X142388095Y-109950057D02*
X142435714Y-110045295D01*
X142435714Y-110045295D02*
X142435714Y-110140533D01*
X142435714Y-110140533D02*
X142388095Y-110283390D01*
X142388095Y-110283390D02*
X141816667Y-110854819D01*
X141816667Y-110854819D02*
X142435714Y-110854819D01*
X123033333Y-105259580D02*
X122985714Y-105307200D01*
X122985714Y-105307200D02*
X122842857Y-105354819D01*
X122842857Y-105354819D02*
X122747619Y-105354819D01*
X122747619Y-105354819D02*
X122604762Y-105307200D01*
X122604762Y-105307200D02*
X122509524Y-105211961D01*
X122509524Y-105211961D02*
X122461905Y-105116723D01*
X122461905Y-105116723D02*
X122414286Y-104926247D01*
X122414286Y-104926247D02*
X122414286Y-104783390D01*
X122414286Y-104783390D02*
X122461905Y-104592914D01*
X122461905Y-104592914D02*
X122509524Y-104497676D01*
X122509524Y-104497676D02*
X122604762Y-104402438D01*
X122604762Y-104402438D02*
X122747619Y-104354819D01*
X122747619Y-104354819D02*
X122842857Y-104354819D01*
X122842857Y-104354819D02*
X122985714Y-104402438D01*
X122985714Y-104402438D02*
X123033333Y-104450057D01*
X123985714Y-105354819D02*
X123414286Y-105354819D01*
X123700000Y-105354819D02*
X123700000Y-104354819D01*
X123700000Y-104354819D02*
X123604762Y-104497676D01*
X123604762Y-104497676D02*
X123509524Y-104592914D01*
X123509524Y-104592914D02*
X123414286Y-104640533D01*
X153204761Y-97750057D02*
X153109523Y-97702438D01*
X153109523Y-97702438D02*
X153014285Y-97607200D01*
X153014285Y-97607200D02*
X152871428Y-97464342D01*
X152871428Y-97464342D02*
X152776190Y-97416723D01*
X152776190Y-97416723D02*
X152680952Y-97416723D01*
X152728571Y-97654819D02*
X152633333Y-97607200D01*
X152633333Y-97607200D02*
X152538095Y-97511961D01*
X152538095Y-97511961D02*
X152490476Y-97321485D01*
X152490476Y-97321485D02*
X152490476Y-96988152D01*
X152490476Y-96988152D02*
X152538095Y-96797676D01*
X152538095Y-96797676D02*
X152633333Y-96702438D01*
X152633333Y-96702438D02*
X152728571Y-96654819D01*
X152728571Y-96654819D02*
X152919047Y-96654819D01*
X152919047Y-96654819D02*
X153014285Y-96702438D01*
X153014285Y-96702438D02*
X153109523Y-96797676D01*
X153109523Y-96797676D02*
X153157142Y-96988152D01*
X153157142Y-96988152D02*
X153157142Y-97321485D01*
X153157142Y-97321485D02*
X153109523Y-97511961D01*
X153109523Y-97511961D02*
X153014285Y-97607200D01*
X153014285Y-97607200D02*
X152919047Y-97654819D01*
X152919047Y-97654819D02*
X152728571Y-97654819D01*
X153538095Y-96750057D02*
X153585714Y-96702438D01*
X153585714Y-96702438D02*
X153680952Y-96654819D01*
X153680952Y-96654819D02*
X153919047Y-96654819D01*
X153919047Y-96654819D02*
X154014285Y-96702438D01*
X154014285Y-96702438D02*
X154061904Y-96750057D01*
X154061904Y-96750057D02*
X154109523Y-96845295D01*
X154109523Y-96845295D02*
X154109523Y-96940533D01*
X154109523Y-96940533D02*
X154061904Y-97083390D01*
X154061904Y-97083390D02*
X153490476Y-97654819D01*
X153490476Y-97654819D02*
X154109523Y-97654819D01*
%TO.C,R6*%
D11*
X134130000Y-117430000D02*
X140670000Y-117430000D01*
X134130000Y-117760000D02*
X134130000Y-117430000D01*
X134130000Y-119840000D02*
X134130000Y-120170000D01*
X134130000Y-120170000D02*
X140670000Y-120170000D01*
X140670000Y-117430000D02*
X140670000Y-117760000D01*
X140670000Y-120170000D02*
X140670000Y-119840000D01*
%TO.C,R1*%
X142330000Y-103830000D02*
X142330000Y-104160000D01*
X142330000Y-106570000D02*
X142330000Y-106240000D01*
X148870000Y-103830000D02*
X142330000Y-103830000D01*
X148870000Y-104160000D02*
X148870000Y-103830000D01*
X148870000Y-106240000D02*
X148870000Y-106570000D01*
X148870000Y-106570000D02*
X142330000Y-106570000D01*
%TO.C,J2*%
X131447500Y-82655000D02*
X131447500Y-98135000D01*
X128427500Y-82655000D02*
X128427500Y-98135000D01*
X123527500Y-82655000D02*
X123527500Y-98135000D01*
X122027500Y-82655000D02*
X122027500Y-98135000D01*
X121407500Y-82655000D02*
X131447500Y-82655000D01*
X121407500Y-85015000D02*
X121407500Y-82655000D01*
X131447500Y-98135000D02*
X121407500Y-98135000D01*
X121407500Y-98135000D02*
X121407500Y-85615000D01*
X121407500Y-85315000D02*
X120797500Y-85755000D01*
X120797500Y-84875000D01*
X121407500Y-85315000D01*
G36*
X121407500Y-85315000D02*
G01*
X120797500Y-85755000D01*
X120797500Y-84875000D01*
X121407500Y-85315000D01*
G37*
%TO.C,J1*%
X154580000Y-113400000D02*
X154580000Y-121130000D01*
X151820000Y-121130000D02*
X154580000Y-121130000D01*
X151820000Y-113400000D02*
X154580000Y-113400000D01*
X151820000Y-113400000D02*
X151820000Y-121130000D01*
X151820000Y-112130000D02*
X151820000Y-110750000D01*
X151820000Y-110750000D02*
X153200000Y-110750000D01*
%TO.C,D1*%
X146700000Y-116060000D02*
X146700000Y-117080000D01*
X148170000Y-117860000D02*
X145230000Y-117860000D01*
X148170000Y-117980000D02*
X145230000Y-117980000D01*
X148170000Y-118100000D02*
X145230000Y-118100000D01*
X146700000Y-123540000D02*
X146700000Y-122520000D01*
X145230000Y-117080000D02*
X148170000Y-117080000D01*
X148170000Y-122520000D01*
X145230000Y-122520000D01*
X145230000Y-117080000D01*
%TO.C,Q1*%
X145430000Y-95450000D02*
X141830000Y-95450000D01*
X145441875Y-95458259D02*
G75*
G02*
X144450000Y-99750000I-1811875J-1841741D01*
G01*
X142850000Y-99750000D02*
G75*
G02*
X141821555Y-95472316I780000J2450000D01*
G01*
%TO.C,D2*%
X145850000Y-93900000D02*
X146500000Y-93900000D01*
X147150000Y-92780000D02*
X147150000Y-95020000D01*
X147250000Y-92780000D02*
X147250000Y-95020000D01*
X147375000Y-92780000D02*
X147375000Y-95020000D01*
X150350000Y-93900000D02*
X149700000Y-93900000D01*
X146500000Y-92780000D02*
X149700000Y-92780000D01*
X149700000Y-95020000D01*
X146500000Y-95020000D01*
X146500000Y-92780000D01*
%TO.C,R5*%
X142330000Y-100730000D02*
X148870000Y-100730000D01*
X142330000Y-101060000D02*
X142330000Y-100730000D01*
X142330000Y-103140000D02*
X142330000Y-103470000D01*
X142330000Y-103470000D02*
X148870000Y-103470000D01*
X148870000Y-100730000D02*
X148870000Y-101060000D01*
X148870000Y-103470000D02*
X148870000Y-103140000D01*
%TO.C,R3*%
X124730000Y-106770000D02*
X124730000Y-100230000D01*
X125060000Y-106770000D02*
X124730000Y-106770000D01*
X127140000Y-106770000D02*
X127470000Y-106770000D01*
X127470000Y-106770000D02*
X127470000Y-100230000D01*
X124730000Y-100230000D02*
X125060000Y-100230000D01*
X127470000Y-100230000D02*
X127140000Y-100230000D01*
%TO.C,R2*%
X130570000Y-100230000D02*
X130570000Y-106770000D01*
X130240000Y-100230000D02*
X130570000Y-100230000D01*
X128160000Y-100230000D02*
X127830000Y-100230000D01*
X127830000Y-100230000D02*
X127830000Y-106770000D01*
X130570000Y-106770000D02*
X130240000Y-106770000D01*
X127830000Y-106770000D02*
X128160000Y-106770000D01*
%TO.C,K1*%
X153200000Y-92640000D02*
X151700000Y-92640000D01*
X142630000Y-92390000D02*
X142630000Y-71870000D01*
X152950000Y-92390000D02*
X142630000Y-92390000D01*
X147500000Y-91620000D02*
X148200000Y-91620000D01*
X148200000Y-91620000D02*
X148200000Y-90420000D01*
X147500000Y-91020000D02*
X146400000Y-91020000D01*
X148200000Y-91020000D02*
X149300000Y-91020000D01*
X153200000Y-90920000D02*
X153200000Y-92640000D01*
X148200000Y-90820000D02*
X147500000Y-91220000D01*
X147500000Y-90420000D02*
X147500000Y-91620000D01*
X148200000Y-90420000D02*
X147500000Y-90420000D01*
X142630000Y-71870000D02*
X152950000Y-71870000D01*
X152950000Y-71870000D02*
X152950000Y-92390000D01*
%TO.C,R4*%
X129530000Y-119470000D02*
X129530000Y-112930000D01*
X129860000Y-119470000D02*
X129530000Y-119470000D01*
X131940000Y-119470000D02*
X132270000Y-119470000D01*
X132270000Y-119470000D02*
X132270000Y-112930000D01*
X129530000Y-112930000D02*
X129860000Y-112930000D01*
X132270000Y-112930000D02*
X131940000Y-112930000D01*
%TO.C,U1*%
D12*
X134962547Y-116796900D02*
X137709853Y-116796900D01*
X137709853Y-111793100D02*
X134962547Y-111793100D01*
X136641000Y-111793100D02*
G75*
G02*
X136031400Y-111793100I-304800J0D01*
G01*
%TO.C,J3*%
D11*
X131520000Y-71240000D02*
X131520000Y-81640000D01*
X128500000Y-71240000D02*
X128500000Y-81640000D01*
X123600000Y-71240000D02*
X123600000Y-81640000D01*
X122100000Y-71240000D02*
X122100000Y-81640000D01*
X121480000Y-71240000D02*
X131520000Y-71240000D01*
X121480000Y-73600000D02*
X121480000Y-71240000D01*
X131520000Y-81640000D02*
X121480000Y-81640000D01*
X121480000Y-81640000D02*
X121480000Y-74200000D01*
X121480000Y-73900000D02*
X120870000Y-74340000D01*
X120870000Y-73460000D01*
X121480000Y-73900000D01*
G36*
X121480000Y-73900000D02*
G01*
X120870000Y-74340000D01*
X120870000Y-73460000D01*
X121480000Y-73900000D01*
G37*
%TO.C,C2*%
X140430000Y-116270000D02*
X140430000Y-111030000D01*
X143170000Y-116270000D02*
X140430000Y-116270000D01*
X140430000Y-111030000D02*
X143170000Y-111030000D01*
X143170000Y-111030000D02*
X143170000Y-116270000D01*
%TO.C,C1*%
X124370000Y-98780000D02*
X124370000Y-104020000D01*
X121630000Y-98780000D02*
X124370000Y-98780000D01*
X124370000Y-104020000D02*
X121630000Y-104020000D01*
X121630000Y-104020000D02*
X121630000Y-98780000D01*
%TO.C,Q2*%
X151170000Y-95450000D02*
X147570000Y-95450000D01*
X151181875Y-95458259D02*
G75*
G02*
X150190000Y-99750000I-1811875J-1841741D01*
G01*
X148590000Y-99750000D02*
G75*
G02*
X147561555Y-95472316I780000J2450000D01*
G01*
%TD*%
D13*
X120000000Y-70000000D02*
X155000000Y-70000000D01*
X155000000Y-130000000D01*
X120000000Y-130000000D01*
X120000000Y-70000000D01*
M02*
